<svg width="60" height="56" viewBox="0 0 60 56" fill="none" xmlns="http://www.w3.org/2000/svg">
<path d="M55.7143 12.8571H45V4.28571C44.9989 3.14942 44.547 2.05999 43.7435 1.25651C42.94 0.453029 41.8506 0.00113459 40.7143 0H19.2857C18.1494 0.00113459 17.06 0.453029 16.2565 1.25651C15.453 2.05999 15.0011 3.14942 15 4.28571V12.8571H4.28571C3.14942 12.8583 2.05999 13.3102 1.25651 14.1137C0.453028 14.9171 0.00113459 16.0066 0 17.1429V51.4286C0.00113459 52.5649 0.453028 53.6543 1.25651 54.4578C2.05999 55.2613 3.14942 55.7132 4.28571 55.7143H55.7143C56.8506 55.7132 57.94 55.2613 58.7435 54.4578C59.547 53.6543 59.9989 52.5649 60 51.4286V17.1429C59.9989 16.0066 59.547 14.9171 58.7435 14.1137C57.94 13.3102 56.8506 12.8583 55.7143 12.8571ZM4.28571 51.4286V17.1429H15V21.4286H10.7143V25.7143H15V30H10.7143V34.2857H15V38.5714H10.7143V42.8571H15V51.4286H4.28571ZM40.7143 51.4286H19.2857V4.28571H40.7143V51.4286ZM55.7143 51.4286H45V42.8571H49.2857V38.5714H45V34.2857H49.2857V30H45V25.7143H49.2857V21.4286H45V17.1429H55.7143V51.4286Z" fill="#FFCE07"/>
<path d="M25.7144 8.57141H34.2858V12.8571H25.7144V8.57141Z" fill="#FFCE07"/>
<path d="M25.7144 17.1429H34.2858V21.4286H25.7144V17.1429Z" fill="#FFCE07"/>
<path d="M25.7144 25.7143H34.2858V30H25.7144V25.7143Z" fill="#FFCE07"/>
</svg>
