<svg width="60" height="60" viewBox="0 0 60 60" fill="none" xmlns="http://www.w3.org/2000/svg">
<path d="M30 52.5C27.4219 52.5 24.8047 52.1875 22.1484 51.5625C18.125 56.2891 14.1992 59.0625 10.3711 59.8828L9.375 60C10.3906 57.7734 10.9766 55.3418 11.1328 52.7051C11.2891 50.0684 11.0352 47.8516 10.3711 46.0547C7.12891 43.5938 4.58984 40.6445 2.75391 37.207C0.917969 33.7695 0 30.1172 0 26.25C0 22.6953 0.791016 19.2969 2.37305 16.0547C3.95508 12.8125 6.08398 10.0195 8.75977 7.67578C11.4355 5.33203 14.6289 3.4668 18.3398 2.08008C22.0508 0.693359 25.9375 0 30 0C34.0625 0 37.9492 0.693359 41.6602 2.08008C45.3711 3.4668 48.5645 5.33203 51.2402 7.67578C53.916 10.0195 56.0449 12.8125 57.627 16.0547C59.209 19.2969 60 22.6953 60 26.25C60 29.8047 59.209 33.2031 57.627 36.4453C56.0449 39.6875 53.916 42.4805 51.2402 44.8242C48.5645 47.168 45.3711 49.0332 41.6602 50.4199C37.9492 51.8066 34.0625 52.5 30 52.5ZM37.5 15C35.4297 15 33.6621 15.7324 32.1973 17.1973C30.7324 18.6621 30 20.4297 30 22.5C30 20.4297 29.2676 18.6621 27.8027 17.1973C26.3379 15.7324 24.5703 15 22.5 15C20.4297 15 18.6621 15.7324 17.1973 17.1973C15.7324 18.6621 15 20.4297 15 22.5V22.5586C15 24.6289 15.5078 26.8555 16.5234 29.2383C17.5391 31.6211 19.1602 33.9453 21.3867 36.2109L30 41.25L38.6133 36.2109C40.918 33.8281 42.5586 31.5723 43.5352 29.4434C44.5117 27.3145 45 25.0195 45 22.5586V22.5C45 20.4297 44.2676 18.6621 42.8027 17.1973C41.3379 15.7324 39.5703 15 37.5 15Z" fill="#FFCE07"/>
</svg>
