<svg width="57" height="57" viewBox="0 0 57 57" fill="none" xmlns="http://www.w3.org/2000/svg">
<path fill-rule="evenodd" clip-rule="evenodd" d="M19.0001 28.5H11.8181C11.121 29.7074 10.045 30.651 8.75697 31.1846C7.46892 31.7181 6.04081 31.8117 4.69413 31.4509C3.34746 31.09 2.15748 30.2949 1.30876 29.1888C0.460036 28.0827 0 26.7275 0 25.3333C0 23.9391 0.460036 22.5839 1.30876 21.4778C2.15748 20.3718 3.34746 19.5766 4.69413 19.2158C6.04081 18.855 7.46892 18.9486 8.75697 19.4821C10.045 20.0156 11.121 20.9593 11.8181 22.1667H19.0001V6.33333C19.0001 4.65363 19.6674 3.04272 20.8551 1.85499C22.0428 0.66726 23.6537 0 25.3334 0H50.6667C52.3464 0 53.9573 0.66726 55.145 1.85499C56.3327 3.04272 57 4.65363 57 6.33333V50.6667C57 52.3464 56.3327 53.9573 55.145 55.145C53.9573 56.3327 52.3464 57 50.6667 57H25.3334C23.6537 57 22.0428 56.3327 20.8551 55.145C19.6674 53.9573 19.0001 52.3464 19.0001 50.6667V28.5ZM25.3334 28.5V50.6667H50.6667V6.33333H25.3334V22.1667H32.5154C33.2125 20.9593 34.2885 20.0156 35.5766 19.4821C36.8646 18.9486 38.2927 18.855 39.6394 19.2158C40.9861 19.5766 42.176 20.3718 43.0248 21.4778C43.8735 22.5839 44.3335 23.9391 44.3335 25.3333C44.3335 26.7275 43.8735 28.0827 43.0248 29.1888C42.176 30.2949 40.9861 31.09 39.6394 31.4509C38.2927 31.8117 36.8646 31.7181 35.5766 31.1846C34.2885 30.651 33.2125 29.7074 32.5154 28.5H25.3334Z" fill="#FFCE07"/>
</svg>
