<svg width="62" height="62" viewBox="0 0 62 62" fill="none" xmlns="http://www.w3.org/2000/svg">
<path d="M10.3745 52.2501C14.1704 52.2501 17.2496 49.1709 17.2496 45.3751C17.2496 41.5779 14.1704 38.5001 10.3745 38.5001C6.57733 38.5001 3.49951 41.5779 3.49951 45.3751C3.49951 49.1709 6.57733 52.2501 10.3745 52.2501Z" stroke="#FFCE07" stroke-width="1.71429" stroke-linecap="round" stroke-linejoin="round"/>
<path d="M21 61.0002C19.0297 57.1536 15.185 54.7502 11.0001 54.7502C6.81504 54.7502 2.96898 57.1536 1 61.0002" stroke="#FFCE07" stroke-width="1.71429" stroke-linecap="round" stroke-linejoin="round"/>
<path d="M50.375 52.2501C54.1723 52.2501 57.2501 49.1709 57.2501 45.3751C57.2501 41.5779 54.1723 38.5001 50.375 38.5001C46.5778 38.5001 43.5 41.5779 43.5 45.3751C43.5 49.1709 46.5778 52.2501 50.375 52.2501Z" stroke="#FFCE07" stroke-width="1.71429" stroke-linecap="round" stroke-linejoin="round"/>
<path d="M61 61.0002C59.0297 57.1536 55.1865 54.7502 51.0001 54.7502C46.815 54.7502 42.9704 57.1536 41 61.0002" stroke="#FFCE07" stroke-width="1.71429" stroke-linecap="round" stroke-linejoin="round"/>
<path d="M30.375 14.75C34.1723 14.75 37.2501 11.6722 37.2501 7.87502C37.2501 4.07786 34.1723 1 30.375 1C26.5778 1 23.5 4.07786 23.5 7.87502C23.5 11.6722 26.5778 14.75 30.375 14.75Z" stroke="#FFCE07" stroke-width="1.71429" stroke-linecap="round" stroke-linejoin="round"/>
<path d="M39.7496 21C37.5659 18.6209 34.3672 17.25 30.9989 17.25C27.6319 17.25 24.4332 18.6209 22.2495 21" stroke="#FFCE07" stroke-width="1.71429" stroke-linecap="round" stroke-linejoin="round"/>
<path d="M23.5 51.0398C28.7356 52.6673 34.5263 52.6529 39.75 51.0002" stroke="#FFCE07" stroke-width="1.71429" stroke-linecap="round" stroke-linejoin="round"/>
<path d="M16 14.75C11.2139 18.7788 8.49844 24.4107 8.5 30.3056C8.5 30.9617 8.5435 31.6024 8.6103 32.2501" stroke="#FFCE07" stroke-width="1.71429" stroke-linecap="round" stroke-linejoin="round"/>
<path d="M53.3913 32.2501C53.4549 31.608 53.5 30.9533 53.5 30.3056C53.5031 24.4107 50.7872 18.7788 46 14.75" stroke="#FFCE07" stroke-width="1.71429" stroke-linecap="round" stroke-linejoin="round"/>
</svg>
