<svg width="73" height="56" viewBox="0 0 73 56" fill="none" xmlns="http://www.w3.org/2000/svg">
<path d="M52.5168 23.3308H70.8722C71.0939 23.3309 71.3111 23.3942 71.4982 23.5132C71.6853 23.6322 71.8346 23.8021 71.9286 24.0029C72.0227 24.2038 72.0576 24.4272 72.0292 24.6472C72.0008 24.8671 71.9104 25.0744 71.7685 25.2448L62.5908 36.2618C62.4813 36.3931 62.3442 36.4988 62.1893 36.5713C62.0344 36.6438 61.8655 36.6814 61.6945 36.6814C61.5235 36.6814 61.3546 36.6438 61.1997 36.5713C61.0448 36.4988 60.9077 36.3931 60.7982 36.2618L51.6205 25.2448C51.4786 25.0744 51.3882 24.8671 51.3598 24.6472C51.3314 24.4272 51.3663 24.2038 51.4604 24.0029C51.5544 23.8021 51.7037 23.6322 51.8908 23.5132C52.0779 23.3942 52.2951 23.3309 52.5168 23.3308ZM1.16661 32.6672H19.522C19.7437 32.6672 19.9609 32.6039 20.148 32.4849C20.3351 32.3658 20.4844 32.196 20.5784 31.9951C20.6725 31.7943 20.7074 31.5708 20.679 31.3509C20.6506 31.131 20.5602 30.9237 20.4183 30.7533L11.2406 19.7363C11.1311 19.605 10.994 19.4993 10.8391 19.4268C10.6842 19.3543 10.5153 19.3167 10.3443 19.3167C10.1733 19.3167 10.0044 19.3543 9.84947 19.4268C9.69458 19.4993 9.55753 19.605 9.448 19.7363L0.270319 30.7533C0.128395 30.9237 0.0379545 31.131 0.00958816 31.3509C-0.0187782 31.5708 0.0161036 31.7943 0.110149 31.9951C0.204195 32.196 0.353511 32.3658 0.540613 32.4849C0.727715 32.6039 0.944857 32.6672 1.16661 32.6672Z" fill="#FFCE07"/>
<path fill-rule="evenodd" clip-rule="evenodd" d="M36.0192 4.65789C28.7742 4.65789 22.2947 7.95831 18.014 13.1447C17.8228 13.3924 17.5838 13.5992 17.3111 13.7528C17.0384 13.9063 16.7377 14.0034 16.4267 14.0384C16.1158 14.0733 15.8009 14.0454 15.501 13.9563C15.201 13.8671 14.9221 13.7186 14.6807 13.5194C14.4393 13.3203 14.2404 13.0747 14.0958 12.7972C13.9513 12.5196 13.864 12.2159 13.8392 11.9039C13.8144 11.592 13.8525 11.2782 13.9514 10.9813C14.0503 10.6845 14.2079 10.4105 14.4148 10.1757C17.8328 6.03747 22.3675 2.96805 27.4795 1.33252C32.5915 -0.303005 38.0657 -0.435816 43.2511 0.949887C48.4364 2.33559 53.1146 5.18149 56.7293 9.1491C60.3439 13.1167 62.7429 18.0391 63.6409 23.3307H58.8934C57.8156 18.0594 54.9505 13.322 50.7825 9.91963C46.6146 6.51722 41.3995 4.65855 36.0192 4.65789ZM13.145 32.6671C14.0288 36.9834 16.1156 40.9617 19.1646 44.1422C22.2135 47.3227 26.1 49.5757 30.3752 50.641C34.6503 51.7062 39.1396 51.5402 43.3244 50.1621C47.5092 48.7841 51.2188 46.2501 54.0244 42.8531C54.2156 42.6053 54.4546 42.3986 54.7273 42.245C55 42.0915 55.3007 41.9944 55.6117 41.9594C55.9226 41.9244 56.2375 41.9524 56.5374 42.0415C56.8374 42.1307 57.1163 42.2792 57.3577 42.4783C57.5991 42.6775 57.798 42.9231 57.9426 43.2006C58.0871 43.4782 58.1744 43.7819 58.1992 44.0939C58.224 44.4058 58.1859 44.7195 58.087 45.0164C57.9881 45.3133 57.8305 45.5873 57.6236 45.8221C54.2056 49.9603 49.6709 53.0297 44.5589 54.6653C39.4469 56.3008 33.9727 56.4336 28.7873 55.0479C23.602 53.6622 18.9238 50.8163 15.3091 46.8487C11.6945 42.8811 9.29547 37.9587 8.39746 32.6671H13.145Z" fill="#FFCE07"/>
</svg>
