<svg width="61" height="61" viewBox="0 0 61 61" fill="none" xmlns="http://www.w3.org/2000/svg">
<path d="M10.3977 0C7.64008 0 4.99538 1.09547 3.04542 3.04542C1.09547 4.99538 0 7.64008 0 10.3977V50.6023C0 53.3599 1.09547 56.0046 3.04542 57.9546C4.99538 59.9045 7.64008 61 10.3977 61H50.6023C53.3599 61 56.0046 59.9045 57.9546 57.9546C59.9045 56.0046 61 53.3599 61 50.6023V10.3977C61 7.64008 59.9045 4.99538 57.9546 3.04542C56.0046 1.09547 53.3599 0 50.6023 0H10.3977ZM4.15909 10.3977C4.15909 8.74314 4.81637 7.15632 5.98635 5.98635C7.15632 4.81637 8.74314 4.15909 10.3977 4.15909H29.1136V18.0227H4.15909V10.3977ZM4.15909 22.1818H29.1136V56.8409H10.3977C8.74314 56.8409 7.15632 56.1836 5.98635 55.0137C4.81637 53.8437 4.15909 52.2569 4.15909 50.6023V22.1818ZM33.2727 56.8409V41.5909H56.8409V50.6023C56.8409 52.2569 56.1836 53.8437 55.0137 55.0137C53.8437 56.1836 52.2569 56.8409 50.6023 56.8409H33.2727ZM56.8409 37.4318H33.2727V4.15909H50.6023C52.2569 4.15909 53.8437 4.81637 55.0137 5.98635C56.1836 7.15632 56.8409 8.74314 56.8409 10.3977V37.4318Z" fill="#FFCE07"/>
</svg>
