<svg width="59" height="59" viewBox="0 0 59 59" fill="none" xmlns="http://www.w3.org/2000/svg">
<path d="M15.25 34.6818C34.6818 34.6818 47.6364 16.5455 47.6364 16.5455L43.75 23.0227L47.6364 26.9091C37.2727 45.0455 29.5 41.1591 29.5 47.6364V58H1V47.6364C1 37.2727 10.0682 34.6818 15.25 34.6818ZM15.25 34.6818C17.655 34.6818 19.9616 33.7264 21.6622 32.0258C23.3628 30.3252 24.3182 28.0187 24.3182 25.6136C24.3182 23.2086 23.3628 20.9021 21.6622 19.2015C19.9616 17.5008 17.655 16.5455 15.25 16.5455C12.845 16.5455 10.5384 17.5008 8.83783 19.2015C7.13721 20.9021 6.18182 23.2086 6.18182 25.6136C6.18182 28.0187 7.13721 30.3252 8.83783 32.0258C10.5384 33.7264 12.845 34.6818 15.25 34.6818ZM6.18182 11.3636V3.59091H58V39.8636M26.9091 1H37.2727V6.18182H26.9091V1Z" stroke="#FFCE07" stroke-width="2"/>
</svg>
