<svg width="60" height="60" viewBox="0 0 60 60" fill="none" xmlns="http://www.w3.org/2000/svg">
<path d="M24.3407 7.64223e-08C20.1197 -0.000335285 15.9719 1.10308 12.309 3.20075C8.64612 5.29843 5.59539 8.31744 3.45955 11.9582C1.32371 15.599 0.177013 19.735 0.133236 23.9558C0.0894595 28.1766 1.15013 32.3355 3.20999 36.0198L0.245582 43.7735C-0.000848225 44.418 -0.0633587 45.1183 0.0650248 45.7963C0.193408 46.4743 0.507637 47.1033 0.972653 47.6131C1.43767 48.123 2.03519 48.4936 2.69855 48.6836C3.3619 48.8736 4.06502 48.8756 4.72944 48.6893L13.9914 46.0936C17.2721 47.6438 20.8594 48.4365 24.4879 48.4133C28.1164 48.39 31.6933 47.5513 34.9539 45.9592C38.2145 44.3671 41.0755 42.0624 43.3253 39.2154C45.575 36.3685 47.1559 33.0522 47.9511 29.5118C48.7463 25.9715 48.7355 22.2976 47.9193 18.762C47.1031 15.2265 45.5026 11.9196 43.236 9.08604C40.9694 6.25248 38.0948 3.96472 34.8248 2.39198C31.5548 0.819245 27.973 0.00176194 24.3445 7.64223e-08H24.3407ZM17.0265 51.1696C19.2967 53.8132 22.1121 55.9342 25.2794 57.387C28.4466 58.8398 31.8908 59.59 35.3753 59.5862C39.0734 59.5862 42.5853 58.7557 45.7284 57.266L54.9866 59.8617C55.6511 60.048 56.3542 60.046 57.0175 59.856C57.6809 59.666 58.2784 59.2954 58.7434 58.7855C59.2085 58.2757 59.5227 57.6467 59.6511 56.9688C59.7794 56.2908 59.7169 55.5904 59.4705 54.9459L56.5098 47.1922C58.4613 43.6953 59.5785 39.662 59.5785 35.3793C59.5785 28.1545 56.413 21.667 51.3891 17.2316C51.9396 19.3765 52.2334 21.5793 52.2643 23.7935C54.5286 27.0894 55.8544 31.0816 55.8544 35.3793C55.8544 39.2896 54.7595 42.943 52.8564 46.0527L52.3797 46.8347L55.9922 56.2754L45.3411 53.2961L44.6894 53.6238C41.8963 55.0539 38.7308 55.862 35.3716 55.862C31.1482 55.8685 27.027 54.5633 23.5773 52.1267C21.3622 52.0688 19.1619 51.7475 17.0228 51.1696H17.0265Z" fill="#FFCE07"/>
</svg>
