<svg width="33" height="33" viewBox="0 0 33 33" fill="none" xmlns="http://www.w3.org/2000/svg">
<path fill-rule="evenodd" clip-rule="evenodd" d="M24.7856 14.321C24.1137 13.7239 23.8279 12.8036 24.0435 11.9309C24.2592 11.0582 24.9405 10.3768 25.8133 10.1612C26.686 9.94558 27.6063 10.2313 28.2035 10.9033C28.4431 11.1432 28.632 11.429 28.7589 11.7435C28.8354 11.9366 29.003 12.0792 29.206 12.1237C29.4064 12.1679 29.6157 12.1074 29.7614 11.9627L31.6484 10.0702C31.8748 9.83884 32.0001 9.52702 31.9967 9.20333C31.9931 8.87963 31.8612 8.57058 31.6299 8.34416L29.6518 6.36752C30.0639 6.26262 30.4398 6.04805 30.7397 5.74661C31.6609 4.7762 31.641 3.24854 30.695 2.30246C29.7488 1.35637 28.2212 1.33646 27.2508 2.25758C26.9496 2.55773 26.735 2.93363 26.6298 3.34558L24.6504 1.36752C24.4234 1.13524 24.1132 1.00299 23.7885 1.00005C23.4637 0.997108 23.1512 1.12371 22.9201 1.35185L21.1685 3.10349C21.0398 3.23284 20.977 3.41359 20.9976 3.5948C21.0181 3.77845 21.1187 3.94366 21.2724 4.04624C22.0568 4.54765 22.4841 5.45438 22.3717 6.37848C22.2593 7.30259 21.6268 8.08035 20.7452 8.37901C19.8635 8.67768 18.8886 8.44432 18.2377 7.7788C18.1247 7.66135 18.0235 7.53303 17.9357 7.39571C17.8327 7.24232 17.6678 7.14146 17.4843 7.11944C17.303 7.09869 17.1223 7.16159 16.993 7.29033L15.23 9.04197C14.7579 9.52377 14.7656 10.297 15.2471 10.7694L22.2251 17.7474C22.6975 18.229 23.4708 18.2366 23.9526 17.7645L25.8394 15.8776C25.9837 15.7324 26.0439 15.5234 25.999 15.3237C25.9542 15.1209 25.8126 14.9531 25.6202 14.8751C25.3071 14.7494 25.0231 14.5608 24.7856 14.321V14.321Z" stroke="#FFCE07" stroke-width="1.5" stroke-linecap="round" stroke-linejoin="round"/>
<path d="M18.4011 22.6975L29.1459 21.8787C29.9405 21.8172 30.7068 22.1879 31.1518 22.8492C31.5967 23.5105 31.6513 24.36 31.2948 25.0729C31.0452 25.5725 30.6158 25.9592 30.0928 26.1552L15.2296 31.7278C14.3143 32.0716 13.3086 32.0903 12.3814 31.7804L1 27.9866" stroke="#FFCE07" stroke-width="1.5" stroke-linecap="round" stroke-linejoin="round"/>
<path d="M8.4765 23.7144H16.7191C17.5371 23.7148 18.2634 23.1916 18.522 22.4156C18.6874 21.9208 18.6419 21.3797 18.3962 20.9194C18.1506 20.4591 17.7264 20.1201 17.2233 19.9819L8.76274 17.6763C7.87042 17.4316 6.93568 17.383 6.02279 17.5339L1 18.3713" stroke="#FFCE07" stroke-width="1.5" stroke-linecap="round" stroke-linejoin="round"/>
</svg>
