<svg width="30" height="31" viewBox="0 0 30 31" fill="none" xmlns="http://www.w3.org/2000/svg">
<path d="M26.5908 19.3282V11.5745" stroke="#FFCE07" stroke-width="1.5" stroke-linecap="round" stroke-linejoin="round"/>
<path d="M3.45312 11.5745V19.3295" stroke="#FFCE07" stroke-width="1.5" stroke-linecap="round" stroke-linejoin="round"/>
<path d="M12.7098 4.13196L5.53711 8.03066" stroke="#FFCE07" stroke-width="1.5" stroke-linecap="round" stroke-linejoin="round"/>
<path d="M24.4716 8.01266L17.3311 4.13196" stroke="#FFCE07" stroke-width="1.5" stroke-linecap="round" stroke-linejoin="round"/>
<path fill-rule="evenodd" clip-rule="evenodd" d="M15.0215 5.85307C16.3526 5.85307 17.4317 4.77399 17.4317 3.44289C17.4317 2.11179 16.3526 1.03271 15.0215 1.03271C13.6904 1.03271 12.6113 2.11179 12.6113 3.44289C12.6113 4.77399 13.6904 5.85307 15.0215 5.85307Z" stroke="#FFCE07" stroke-width="1.5" stroke-linecap="round" stroke-linejoin="round"/>
<path d="M12.7329 26.7837L5.53711 22.8722" stroke="#FFCE07" stroke-width="1.5" stroke-linecap="round" stroke-linejoin="round"/>
<path d="M24.4732 22.8901L17.3096 26.7837" stroke="#FFCE07" stroke-width="1.5" stroke-linecap="round" stroke-linejoin="round"/>
<path fill-rule="evenodd" clip-rule="evenodd" d="M15.0215 29.9549C16.3526 29.9549 17.4317 28.8758 17.4317 27.5447C17.4317 26.2136 16.3526 25.1345 15.0215 25.1345C13.6904 25.1345 12.6113 26.2136 12.6113 27.5447C12.6113 28.8758 13.6904 29.9549 15.0215 29.9549Z" stroke="#FFCE07" stroke-width="1.5" stroke-linecap="round" stroke-linejoin="round"/>
<path fill-rule="evenodd" clip-rule="evenodd" d="M3.41018 11.5745C4.74128 11.5745 5.82036 10.4954 5.82036 9.16433C5.82036 7.83323 4.74128 6.75415 3.41018 6.75415C2.07907 6.75415 1 7.83323 1 9.16433C1 10.4954 2.07907 11.5745 3.41018 11.5745Z" stroke="#FFCE07" stroke-width="1.5" stroke-linecap="round" stroke-linejoin="round"/>
<path fill-rule="evenodd" clip-rule="evenodd" d="M3.41018 24.1486C4.74128 24.1486 5.82036 23.0695 5.82036 21.7384C5.82036 20.4073 4.74128 19.3282 3.41018 19.3282C2.07907 19.3282 1 20.4073 1 21.7384C1 23.0695 2.07907 24.1486 3.41018 24.1486Z" stroke="#FFCE07" stroke-width="1.5" stroke-linecap="round" stroke-linejoin="round"/>
<path fill-rule="evenodd" clip-rule="evenodd" d="M26.5899 11.5745C27.9211 11.5745 29 10.4954 29 9.16433C29 7.83323 27.9211 6.75415 26.5899 6.75415C25.2588 6.75415 24.1797 7.83323 24.1797 9.16433C24.1797 10.4954 25.2588 11.5745 26.5899 11.5745Z" stroke="#FFCE07" stroke-width="1.5" stroke-linecap="round" stroke-linejoin="round"/>
<path fill-rule="evenodd" clip-rule="evenodd" d="M26.5899 24.1486C27.9211 24.1486 29 23.0695 29 21.7384C29 20.4073 27.9211 19.3282 26.5899 19.3282C25.2588 19.3282 24.1797 20.4073 24.1797 21.7384C24.1797 23.0695 25.2588 24.1486 26.5899 24.1486Z" stroke="#FFCE07" stroke-width="1.5" stroke-linecap="round" stroke-linejoin="round"/>
<path d="M12.6322 18.3037C13.1986 19.0475 14.0928 19.4674 15.0269 19.4284C16.4897 19.4284 17.6774 18.5389 17.6774 17.4399C17.6774 16.3408 16.4846 15.4526 15.0269 15.4526C13.5692 15.4526 12.375 14.5618 12.375 13.4627C12.375 12.3637 13.5577 11.4742 15.0269 11.4742C15.9588 11.4371 16.8503 11.8568 17.4152 12.5989" stroke="#FFCE07" stroke-width="1.5" stroke-linecap="round" stroke-linejoin="round"/>
<path d="M15.0205 19.4286V20.7538" stroke="#FFCE07" stroke-width="1.5" stroke-linecap="round" stroke-linejoin="round"/>
<path d="M15.0205 10.149V11.4743" stroke="#FFCE07" stroke-width="1.5" stroke-linecap="round" stroke-linejoin="round"/>
</svg>
