<svg width="28" height="32" viewBox="0 0 28 32" fill="none" xmlns="http://www.w3.org/2000/svg">
<path d="M27.2383 27.98L25.5 25V18C25.5 15.3333 21.0666 12.48 19.375 11" stroke="#FFCE07" stroke-width="1.5" stroke-linecap="round" stroke-linejoin="round"/>
<path d="M21.6269 19.724L17.3709 15.8267C16.7771 15.1481 15.8144 15.1481 15.2207 15.8267C14.6269 16.5053 14.6269 17.6054 15.2207 18.284L19.3425 23.6V26.9333C19.3425 28.508 21.3119 30.9933 21.3119 30.9933" stroke="#FFCE07" stroke-width="1.5" stroke-linecap="round" stroke-linejoin="round"/>
<path d="M15.875 29H2.60301C1.7175 28.9993 1 28.1787 1 27.1667V2.832C1 1.82021 1.71769 1 2.60301 1H17.7696C18.1951 0.999647 18.6032 1.19246 18.9043 1.53603C19.2053 1.8796 19.3747 2.34577 19.375 2.832V17.6627" stroke="#FFCE07" stroke-width="1.5" stroke-linecap="round" stroke-linejoin="round"/>
<path d="M11.5 5H15V9" stroke="#FFCE07" stroke-width="1.5" stroke-linecap="round" stroke-linejoin="round"/>
<path d="M15 5L4.5 16" stroke="#FFCE07" stroke-width="1.5" stroke-linecap="round" stroke-linejoin="round"/>
<path d="M6.23828 21V25" stroke="#FFCE07" stroke-width="1.5" stroke-linecap="round" stroke-linejoin="round"/>
<path d="M9.73828 18V25" stroke="#FFCE07" stroke-width="1.5" stroke-linecap="round" stroke-linejoin="round"/>
</svg>
