<svg width="32" height="31" viewBox="0 0 32 31" fill="none" xmlns="http://www.w3.org/2000/svg">
<path d="M2 18H30" stroke="#FFCE07" stroke-width="1.5" stroke-linecap="round" stroke-linejoin="round"/>
<path d="M30 22H2" stroke="#FFCE07" stroke-width="1.5" stroke-linecap="round" stroke-linejoin="round"/>
<path d="M4 22C4 22 5.2 30 16 30C26.8 30 28 22 28 22" stroke="#FFCE07" stroke-width="1.5" stroke-linecap="round" stroke-linejoin="round"/>
<path d="M4 18C2.11145 16.5836 1 14.3607 1 12C1 8.00001 10 1 16 1C22 1 31 8.00001 31 12C31 14.3607 29.8886 16.5836 28 18" stroke="#FFCE07" stroke-width="1.5" stroke-linecap="round" stroke-linejoin="round"/>
<path fill-rule="evenodd" clip-rule="evenodd" d="M16.3094 13.8973L16 14L15.6906 13.8973C13.7849 13.2619 12.4997 11.4783 12.5 9.46933V8C12.5 7.44771 12.9478 7 13.5 7H18.5C19.0524 7 19.5 7.44771 19.5 8V9.46667C19.5015 11.4765 18.216 13.2617 16.3094 13.8973Z" stroke="#FFCE07" stroke-width="1.5" stroke-linecap="round" stroke-linejoin="round"/>
</svg>
