<svg width="32" height="31" viewBox="0 0 32 31" fill="none" xmlns="http://www.w3.org/2000/svg">
<path d="M1 29.8H31" stroke="#FFCE07" stroke-width="1.5" stroke-linecap="round" stroke-linejoin="round"/>
<path fill-rule="evenodd" clip-rule="evenodd" d="M8 22.1201H4C3.44772 22.1201 3 22.5499 3 23.0801V29.8001H9V23.0801C9 22.5499 8.55228 22.1201 8 22.1201Z" stroke="#FFCE07" stroke-width="1.5" stroke-linecap="round" stroke-linejoin="round"/>
<path fill-rule="evenodd" clip-rule="evenodd" d="M18 12.52H14C13.4477 12.52 13 12.9498 13 13.48V29.8H19V13.48C19 12.9498 18.5523 12.52 18 12.52Z" stroke="#FFCE07" stroke-width="1.5" stroke-linecap="round" stroke-linejoin="round"/>
<path fill-rule="evenodd" clip-rule="evenodd" d="M28 18.28H24C23.4477 18.28 23 18.7098 23 19.24V29.8H29V19.24C29 18.7098 28.5523 18.28 28 18.28V18.28Z" stroke="#FFCE07" stroke-width="1.5" stroke-linecap="round" stroke-linejoin="round"/>
<path fill-rule="evenodd" clip-rule="evenodd" d="M3 15.4001C4.10457 15.4001 5 14.5405 5 13.4801C5 12.4197 4.10457 11.5601 3 11.5601C1.89543 11.5601 1 12.4197 1 13.4801C1 14.5405 1.89543 15.4001 3 15.4001Z" stroke="#FFCE07" stroke-width="1.5" stroke-linecap="round" stroke-linejoin="round"/>
<path fill-rule="evenodd" clip-rule="evenodd" d="M12 4.84C13.1046 4.84 14 3.98039 14 2.92C14 1.85961 13.1046 1 12 1C10.8954 1 10 1.85961 10 2.92C10 3.98039 10.8954 4.84 12 4.84Z" stroke="#FFCE07" stroke-width="1.5" stroke-linecap="round" stroke-linejoin="round"/>
<path fill-rule="evenodd" clip-rule="evenodd" d="M29 9.64005C30.1046 9.64005 31 8.78044 31 7.72005C31 6.65966 30.1046 5.80005 29 5.80005C27.8954 5.80005 27 6.65966 27 7.72005C27 8.78044 27.8954 9.64005 29 9.64005Z" stroke="#FFCE07" stroke-width="1.5" stroke-linecap="round" stroke-linejoin="round"/>
<path d="M4.2666 11.9938L10.7332 4.40601" stroke="#FFCE07" stroke-width="1.5" stroke-linecap="round" stroke-linejoin="round"/>
<path d="M27.0812 7.17727L13.9185 3.46143" stroke="#FFCE07" stroke-width="1.5" stroke-linecap="round" stroke-linejoin="round"/>
</svg>
