<svg width="32" height="32" viewBox="0 0 32 32" fill="none" xmlns="http://www.w3.org/2000/svg">
<path fill-rule="evenodd" clip-rule="evenodd" d="M9.70835 12.4832C10.0372 12.8509 10.5071 13.061 11.0004 13.061C11.4937 13.061 11.9636 12.8509 12.2924 12.4832L13.1284 11.5579C13.6219 11.0108 14.4063 10.8336 15.0871 11.1153C15.7679 11.3971 16.1977 12.0767 16.1604 12.8125L16.0964 14.0592C16.0717 14.5512 16.2563 15.0307 16.6046 15.379C16.9529 15.7273 17.4324 15.912 17.9244 15.8872L19.1697 15.8232C19.9058 15.7853 20.586 16.2149 20.8681 16.8958C21.1502 17.5768 20.973 18.3615 20.4257 18.8552L19.5004 19.6899C19.1346 20.0201 18.9258 20.4898 18.9258 20.9825C18.9258 21.4753 19.1346 21.945 19.5004 22.2752L20.4257 23.1112C20.973 23.6049 21.1502 24.3897 20.8681 25.0706C20.586 25.7516 19.9058 26.1811 19.1697 26.1432L17.9244 26.0792C17.4324 26.0545 16.9529 26.2391 16.6046 26.5874C16.2563 26.9358 16.0717 27.4152 16.0964 27.9072L16.1604 29.1525C16.1983 29.8886 15.7687 30.5688 15.0878 30.8509C14.4069 31.133 13.6221 30.9558 13.1284 30.4085L12.2924 29.4832C11.9636 29.1155 11.4937 28.9054 11.0004 28.9054C10.5071 28.9054 10.0372 29.1155 9.70835 29.4832L8.87235 30.4085C8.37866 30.9558 7.59389 31.133 6.91295 30.8509C6.23202 30.5688 5.80242 29.8886 5.84035 29.1525L5.90435 27.9072C5.9291 27.4152 5.74446 26.9358 5.39614 26.5874C5.04781 26.2391 4.56834 26.0545 4.07635 26.0792L2.83102 26.1432C2.09495 26.1811 1.41472 25.7516 1.13264 25.0706C0.850568 24.3897 1.02775 23.6049 1.57502 23.1112L2.50035 22.2752C2.86617 21.945 3.07496 21.4753 3.07496 20.9825C3.07496 20.4898 2.86617 20.0201 2.50035 19.6899L1.57502 18.8552C1.02775 18.3615 0.850568 17.5768 1.13264 16.8958C1.41472 16.2149 2.09495 15.7853 2.83102 15.8232L4.07635 15.8872C4.56834 15.912 5.04781 15.7273 5.39614 15.379C5.74446 15.0307 5.9291 14.5512 5.90435 14.0592L5.84035 12.8125C5.80303 12.0767 6.23284 11.3971 6.91363 11.1153C7.59441 10.8336 8.37881 11.0108 8.87235 11.5579L9.70835 12.4832Z" stroke="#FFCE07" stroke-width="1.5" stroke-linecap="round" stroke-linejoin="round"/>
<path d="M24.8511 6.64868C24.5749 6.64868 24.3511 6.87253 24.3511 7.14868C24.3511 7.42482 24.5749 7.64868 24.8511 7.64868C25.1272 7.64868 25.3511 7.42482 25.3511 7.14868C25.3514 7.01596 25.2989 6.88858 25.205 6.79473C25.1112 6.70088 24.9838 6.64832 24.8511 6.64868Z" stroke="#FFCE07" stroke-width="1.5" stroke-linecap="round" stroke-linejoin="round"/>
<path fill-rule="evenodd" clip-rule="evenodd" d="M28.2591 2.44594C28.6286 2.3028 29.0477 2.39134 29.3278 2.67167C29.6078 2.95201 29.6959 3.37126 29.5524 3.74061L28.8857 5.45527C28.7288 5.86165 28.8522 6.32289 29.1911 6.59661L30.6257 7.74994C30.9339 7.9983 31.0666 8.40505 30.9642 8.78736C30.8617 9.16967 30.5435 9.45559 30.1524 9.51661L28.3337 9.79794C27.9031 9.86493 27.5654 10.2032 27.4991 10.634L27.2177 12.4513C27.1572 12.843 26.871 13.162 26.4881 13.2645C26.1052 13.367 25.6979 13.2337 25.4497 12.9246L24.2977 11.4913C24.0243 11.152 23.5628 11.0286 23.1564 11.186L21.4404 11.8526C21.0709 11.9958 20.6517 11.9072 20.3717 11.6269C20.0917 11.3466 20.0036 10.9273 20.1471 10.558L20.8137 8.84327C20.9707 8.4369 20.8473 7.97566 20.5084 7.70194L19.0737 6.54994C18.7659 6.30119 18.6334 5.89444 18.7358 5.51209C18.8381 5.12975 19.1561 4.84359 19.5471 4.78194L21.3657 4.50061C21.7964 4.43457 22.1344 4.09661 22.2004 3.66594L22.4817 1.84727C22.5423 1.45555 22.8285 1.13657 23.2114 1.03406C23.5943 0.931557 24.0016 1.06487 24.2497 1.37394L25.4031 2.80727C25.6755 3.14719 26.1369 3.2713 26.5431 3.11394L28.2591 2.44594Z" stroke="#FFCE07" stroke-width="1.5" stroke-linecap="round" stroke-linejoin="round"/>
<path d="M12.591 18.0793H10.2576C9.55979 18.1236 9.02824 18.7224 9.06699 19.4206C9.0521 19.9464 9.34475 20.4328 9.81632 20.6659L12.1763 21.4913C12.6474 21.7256 12.9397 22.212 12.9256 22.7379C12.9644 23.4366 12.432 24.0357 11.7336 24.0793H8.92432" stroke="#FFCE07" stroke-width="1.5" stroke-linecap="round" stroke-linejoin="round"/>
<path d="M10.9243 18.0795V16.7461" stroke="#FFCE07" stroke-width="1.5" stroke-linecap="round" stroke-linejoin="round"/>
<path d="M10.9243 25.4126V24.0793" stroke="#FFCE07" stroke-width="1.5" stroke-linecap="round" stroke-linejoin="round"/>
</svg>
