<svg width="31" height="29" viewBox="0 0 31 29" fill="none" xmlns="http://www.w3.org/2000/svg">
<path d="M30.6771 26.0341H2.90625V0.329545C2.90625 0.148295 2.76094 0 2.58333 0H0.322917C0.145312 0 0 0.148295 0 0.329545V28.6705C0 28.8517 0.145312 29 0.322917 29H30.6771C30.8547 29 31 28.8517 31 28.6705V26.3636C31 26.1824 30.8547 26.0341 30.6771 26.0341ZM6.45833 22.7386H8.71875C8.89635 22.7386 9.04167 22.5903 9.04167 22.4091V16.4773C9.04167 16.296 8.89635 16.1477 8.71875 16.1477H6.45833C6.28073 16.1477 6.13542 16.296 6.13542 16.4773V22.4091C6.13542 22.5903 6.28073 22.7386 6.45833 22.7386ZM12.5938 22.7386H14.8542C15.0318 22.7386 15.1771 22.5903 15.1771 22.4091V9.22727C15.1771 9.04602 15.0318 8.89773 14.8542 8.89773H12.5938C12.4161 8.89773 12.2708 9.04602 12.2708 9.22727V22.4091C12.2708 22.5903 12.4161 22.7386 12.5938 22.7386ZM18.7292 22.7386H20.9896C21.1672 22.7386 21.3125 22.5903 21.3125 22.4091V12.4403C21.3125 12.2591 21.1672 12.1108 20.9896 12.1108H18.7292C18.5516 12.1108 18.4062 12.2591 18.4062 12.4403V22.4091C18.4062 22.5903 18.5516 22.7386 18.7292 22.7386ZM24.8646 22.7386H27.125C27.3026 22.7386 27.4479 22.5903 27.4479 22.4091V5.93182C27.4479 5.75057 27.3026 5.60227 27.125 5.60227H24.8646C24.687 5.60227 24.5417 5.75057 24.5417 5.93182V22.4091C24.5417 22.5903 24.687 22.7386 24.8646 22.7386Z" fill="#FFCE07"/>
</svg>
