<svg width="32" height="28" viewBox="0 0 32 28" fill="none" xmlns="http://www.w3.org/2000/svg">
<path d="M11.4331 4.56686C11.4331 3.35565 11.9143 2.19405 12.7707 1.3376C13.6272 0.481149 14.7888 0 16 0C17.2112 0 18.3728 0.481149 19.2292 1.3376C20.0857 2.19405 20.5668 3.35565 20.5668 4.56686C20.5668 5.77806 20.0857 6.93966 19.2292 7.79611C18.3728 8.65257 17.2112 9.13371 16 9.13371C14.7888 9.13371 13.6272 8.65257 12.7707 7.79611C11.9143 6.93966 11.4331 5.77806 11.4331 4.56686ZM16 2.28571C15.7004 2.28571 15.4038 2.34472 15.127 2.45936C14.8502 2.57399 14.5988 2.74202 14.387 2.95385C14.1751 3.16567 14.0071 3.41714 13.8925 3.6939C13.7778 3.97066 13.7188 4.26729 13.7188 4.56686C13.7188 4.86642 13.7778 5.16305 13.8925 5.43981C14.0071 5.71657 14.1751 5.96805 14.387 6.17987C14.5988 6.39169 14.8502 6.55972 15.127 6.67436C15.4038 6.789 15.7004 6.848 16 6.848C16.605 6.848 17.1852 6.60767 17.613 6.17987C18.0408 5.75207 18.2811 5.17185 18.2811 4.56686C18.2811 3.96186 18.0408 3.38164 17.613 2.95385C17.1852 2.52605 16.605 2.28571 16 2.28571Z" fill="#FFCE07"/>
<path d="M22.8572 5.7097C22.8572 5.25945 22.9459 4.81362 23.1182 4.39764C23.2905 3.98167 23.543 3.60371 23.8614 3.28533C24.1798 2.96696 24.5577 2.71441 24.9737 2.54211C25.3897 2.36981 25.8355 2.28113 26.2857 2.28113C26.736 2.28113 27.1818 2.36981 27.5978 2.54211C28.0138 2.71441 28.3917 2.96696 28.7101 3.28533C29.0285 3.60371 29.281 3.98167 29.4533 4.39764C29.6256 4.81362 29.7143 5.25945 29.7143 5.7097C29.7143 6.61901 29.3531 7.49108 28.7101 8.13407C28.0671 8.77705 27.1951 9.13827 26.2857 9.13827C25.3764 9.13827 24.5044 8.77705 23.8614 8.13407C23.2184 7.49108 22.8572 6.61901 22.8572 5.7097ZM26.2857 4.56684C25.9826 4.56684 25.692 4.68725 25.4776 4.90158C25.2633 5.11591 25.1429 5.40659 25.1429 5.7097C25.1429 6.0128 25.2633 6.30349 25.4776 6.51782C25.692 6.73215 25.9826 6.85256 26.2857 6.85256C26.5889 6.85256 26.8795 6.73215 27.0939 6.51782C27.3082 6.30349 27.4286 6.0128 27.4286 5.7097C27.4286 5.40659 27.3082 5.11591 27.0939 4.90158C26.8795 4.68725 26.5889 4.56684 26.2857 4.56684Z" fill="#FFCE07"/>
<path d="M5.71422 2.28113C4.8049 2.28113 3.93283 2.64235 3.28985 3.28533C2.64687 3.92832 2.28564 4.80039 2.28564 5.7097C2.28564 6.61901 2.64687 7.49108 3.28985 8.13407C3.93283 8.77705 4.8049 9.13827 5.71422 9.13827C6.62353 9.13827 7.4956 8.77705 8.13858 8.13407C8.78156 7.49108 9.14279 6.61901 9.14279 5.7097C9.14279 4.80039 8.78156 3.92832 8.13858 3.28533C7.4956 2.64235 6.62353 2.28113 5.71422 2.28113ZM4.57136 5.7097C4.57136 5.40659 4.69177 5.11591 4.90609 4.90158C5.12042 4.68725 5.41111 4.56684 5.71422 4.56684C6.01732 4.56684 6.30801 4.68725 6.52234 4.90158C6.73667 5.11591 6.85707 5.40659 6.85707 5.7097C6.85707 6.0128 6.73667 6.30349 6.52234 6.51782C6.30801 6.73215 6.01732 6.85256 5.71422 6.85256C5.41111 6.85256 5.12042 6.73215 4.90609 6.51782C4.69177 6.30349 4.57136 6.0128 4.57136 5.7097Z" fill="#FFCE07"/>
<path d="M7.46971 11.424C7.06744 12.1185 6.8561 12.9071 6.85714 13.7097H2.28571V19.4239C2.28553 19.9925 2.42673 20.5522 2.69661 21.0526C2.96649 21.553 3.35657 21.9784 3.83174 22.2906C4.30692 22.6027 4.85226 22.7919 5.41869 22.8409C5.98511 22.8899 6.55484 22.7973 7.07657 22.5714C7.24571 23.3279 7.51086 24.0502 7.85371 24.7245C6.98621 25.0748 6.04596 25.2067 5.11556 25.1087C4.18515 25.0107 3.29305 24.6857 2.51758 24.1623C1.74212 23.6389 1.10702 22.9332 0.668052 22.107C0.229088 21.2808 -0.000310966 20.3595 3.16373e-07 19.4239V13.7097C3.16373e-07 13.1035 0.240816 12.5221 0.66947 12.0934C1.09812 11.6648 1.67951 11.424 2.28571 11.424H7.46971Z" fill="#FFCE07"/>
<path d="M24.1462 24.7245C25.0137 25.0748 25.954 25.2067 26.8844 25.1087C27.8148 25.0107 28.7069 24.6857 29.4824 24.1623C30.2578 23.6389 30.8929 22.9332 31.3319 22.107C31.7709 21.2808 32.0003 20.3595 32 19.4239V13.7097C32 13.1035 31.7591 12.5221 31.3305 12.0934C30.9018 11.6648 30.3204 11.424 29.7142 11.424H24.5302C24.9188 12.096 25.1428 12.8754 25.1428 13.7097H29.7142V19.4239C29.7144 19.9925 29.5732 20.5522 29.3033 21.0526C29.0335 21.553 28.6434 21.9784 28.1682 22.2906C27.693 22.6027 27.1477 22.7919 26.5813 22.8409C26.0148 22.8899 25.4451 22.7973 24.9234 22.5714C24.752 23.3279 24.4891 24.0502 24.1462 24.7245Z" fill="#FFCE07"/>
<path d="M11.4285 11.424C10.8223 11.424 10.2409 11.6648 9.81229 12.0934C9.38364 12.5221 9.14282 13.1035 9.14282 13.7097V20.5668C9.14282 22.3854 9.86527 24.1296 11.1512 25.4155C12.4372 26.7015 14.1813 27.424 16 27.424C17.8186 27.424 19.5627 26.7015 20.8487 25.4155C22.1347 24.1296 22.8571 22.3854 22.8571 20.5668V13.7097C22.8571 13.1035 22.6163 12.5221 22.1876 12.0934C21.759 11.6648 21.1776 11.424 20.5714 11.424H11.4285ZM11.4285 13.7097H20.5714V20.5668C20.5714 21.7792 20.0898 22.942 19.2325 23.7993C18.3751 24.6566 17.2124 25.1382 16 25.1382C14.7875 25.1382 13.6248 24.6566 12.7675 23.7993C11.9102 22.942 11.4285 21.7792 11.4285 20.5668V13.7097Z" fill="#FFCE07"/>
</svg>
