<svg width="29" height="29" viewBox="0 0 29 29" fill="none" xmlns="http://www.w3.org/2000/svg">
<path d="M25 23.5861L23 21.5861V19.0001H21V22.4141L23.586 25.0001L25 23.5861Z" fill="#FFCE07"/>
<path d="M22 29.0001C20.6155 29.0001 19.2622 28.5896 18.111 27.8204C16.9599 27.0512 16.0627 25.958 15.5328 24.6789C15.003 23.3998 14.8644 21.9924 15.1345 20.6345C15.4046 19.2766 16.0713 18.0293 17.0503 17.0504C18.0292 16.0714 19.2765 15.4047 20.6344 15.1346C21.9922 14.8645 23.3997 15.0032 24.6788 15.533C25.9579 16.0628 27.0511 16.96 27.8203 18.1111C28.5895 19.2623 29 20.6157 29 22.0001C28.9979 23.856 28.2597 25.6352 26.9474 26.9475C25.6351 28.2598 23.8559 28.998 22 29.0001ZM22 17.0001C21.0111 17.0001 20.0444 17.2934 19.2222 17.8428C18.3999 18.3922 17.759 19.1731 17.3806 20.0867C17.0022 21.0003 16.9032 22.0057 17.0961 22.9756C17.289 23.9455 17.7652 24.8364 18.4645 25.5357C19.1637 26.2349 20.0546 26.7111 21.0246 26.9041C21.9945 27.097 22.9998 26.998 23.9134 26.6195C24.8271 26.2411 25.6079 25.6002 26.1574 24.778C26.7068 23.9557 27 22.989 27 22.0001C26.9987 20.6744 26.4715 19.4034 25.5341 18.4661C24.5967 17.5287 23.3257 17.0014 22 17.0001Z" fill="#FFCE07"/>
<path d="M14 26.0001C10.8185 25.9967 7.76821 24.7313 5.51852 22.4816C3.26883 20.2319 2.00344 17.1817 2 14.0001H0C0.00423472 17.7119 1.48059 21.2703 4.10518 23.8949C6.72977 26.5195 10.2883 27.9959 14 28.0001V26.0001Z" fill="#FFCE07"/>
<path d="M10 6.0001H5.078C6.69621 4.18831 8.82681 2.91108 11.1874 2.3377C13.548 1.76432 16.0271 1.92188 18.2961 2.78949C20.5652 3.6571 22.5169 5.19379 23.8927 7.19587C25.2686 9.19795 26.0034 11.5709 26 14.0001H28C28.0044 11.2169 27.1778 8.49572 25.6262 6.18517C24.0745 3.87461 21.8684 2.07988 19.2904 1.03087C16.7125 -0.0181477 13.88 -0.273683 11.1559 0.296993C8.43186 0.86767 5.94015 2.23857 4 4.2341V0.00010248H2V8.0001H10V6.0001Z" fill="#FFCE07"/>
</svg>
