<svg width="32" height="32" viewBox="0 0 32 32" fill="none" xmlns="http://www.w3.org/2000/svg">
<path d="M31.066 7.23968C31.076 7.28168 31.082 7.32868 31.082 7.36968V14.2397C31.0822 14.3274 31.0592 14.4135 31.0153 14.4894C30.9714 14.5653 30.9081 14.6282 30.832 14.6717L25.066 17.9947V24.5727C25.0662 24.6604 25.0432 24.7465 24.9993 24.8224C24.9554 24.8983 24.8921 24.9612 24.816 25.0047L12.78 31.9317C12.7519 31.9473 12.722 31.9594 12.691 31.9677L12.66 31.9837C12.5763 32.0047 12.4887 32.0047 12.405 31.9837C12.3924 31.9799 12.3803 31.9745 12.369 31.9677C12.3401 31.9587 12.3123 31.9467 12.286 31.9317L0.255 25.0047C0.178343 24.9614 0.114428 24.8986 0.0696701 24.8228C0.0249118 24.747 0.000884723 24.6607 0 24.5727V3.96368C0 3.92168 0.01 3.87468 0.021 3.83368C0.026 3.81768 0.031 3.80768 0.037 3.79168L0.068 3.71368C0.073 3.69768 0.089 3.68768 0.099 3.67168L0.146 3.60868C0.162834 3.59829 0.17858 3.58623 0.193 3.57268C0.214 3.55668 0.229 3.54168 0.25 3.53068L6.266 0.0666794C6.34208 0.0229901 6.42827 0 6.516 0C6.60373 0 6.68992 0.0229901 6.766 0.0666794L12.787 3.53068C12.808 3.54068 12.823 3.55668 12.839 3.57268L12.891 3.60868C12.9064 3.62873 12.9204 3.64978 12.933 3.67168C12.943 3.68168 12.959 3.69768 12.969 3.71368L13 3.79168C13.005 3.80768 13.016 3.81768 13.016 3.83368C13.0311 3.8753 13.0383 3.91941 13.037 3.96368V16.8337L18.047 13.9487V7.37068C18.0489 7.31159 18.0614 7.25332 18.084 7.19868L18.115 7.12068C18.125 7.09968 18.141 7.08968 18.151 7.07368C18.167 7.05268 18.177 7.03168 18.193 7.01668C18.209 7.00168 18.229 6.99068 18.245 6.98068C18.26 6.96403 18.2776 6.94986 18.297 6.93868L24.318 3.47468C24.3932 3.42852 24.4797 3.40409 24.568 3.40409C24.6563 3.40409 24.7428 3.42852 24.818 3.47468L30.834 6.93868C30.855 6.94868 30.87 6.96468 30.891 6.98068C30.907 6.99068 30.922 7.00168 30.938 7.01668C30.954 7.03168 30.969 7.05268 30.985 7.07368C30.995 7.08968 31.011 7.09968 31.016 7.12068C31.032 7.14668 31.037 7.17268 31.047 7.19868C31.057 7.20868 31.063 7.22468 31.068 7.24068L31.066 7.23968ZM30.076 13.9477V8.23968L27.972 9.44768L25.066 11.1247V16.8327L30.076 13.9477ZM24.066 24.2807V18.5667L21.201 20.1967L13.034 24.8637V30.6297L24.066 24.2807ZM0.998 4.83268V24.2807L12.029 30.6297V24.8637L6.263 21.5977C6.242 21.5877 6.227 21.5717 6.211 21.5557C6.195 21.5457 6.175 21.5347 6.164 21.5197H6.159C6.143 21.5037 6.133 21.4837 6.117 21.4677C6.107 21.4517 6.091 21.4367 6.081 21.4157C6.06936 21.396 6.0606 21.3748 6.055 21.3527C6.045 21.3317 6.034 21.3167 6.029 21.2957C6.024 21.2747 6.019 21.2487 6.019 21.2227C6.014 21.2017 6.009 21.1867 6.009 21.1657V7.71768L3.103 6.04068L0.998 4.83268ZM6.514 1.07768L1.504 3.96268L6.514 6.84768L11.524 3.96268L6.514 1.07768ZM9.123 19.0887L12.029 17.4117V4.83368L9.925 6.04168L7.014 7.71868V20.2967L9.123 19.0887ZM24.566 4.48368L19.55 7.36868L24.566 10.2537L29.576 7.36868L24.566 4.48368ZM24.066 11.1247L19.05 8.23968V13.9477L21.956 15.6247L24.065 16.8327L24.066 11.1247ZM12.53 23.9947L23.556 17.7027L18.551 14.8177L7.53 21.1617L12.53 23.9947Z" fill="black"/>
</svg>
