<svg width="27" height="32" viewBox="0 0 27 32" fill="none" xmlns="http://www.w3.org/2000/svg">
<path d="M13.494 31.3336C13.0891 31.3336 12.6782 31.2229 12.3216 31.0137L8.59311 28.7685C8.03715 28.4486 8.30909 28.3379 8.49038 28.2764C9.23366 28.0119 9.38474 27.9565 10.1764 27.4951C10.261 27.4459 10.3697 27.4644 10.4543 27.5197L13.3187 29.2483C13.4214 29.3098 13.5665 29.3098 13.6632 29.2483L24.8245 22.6909C24.9273 22.6294 24.9937 22.5064 24.9937 22.3833V9.26853C24.9937 9.13935 24.9273 9.02248 24.8185 8.95481L13.6632 2.40357C13.5604 2.34205 13.4214 2.34205 13.3187 2.40357L2.16943 8.96096C2.06065 9.02248 1.99418 9.1455 1.99418 9.27468V22.3833C1.99418 22.5064 2.06065 22.6294 2.16943 22.6847L5.22717 24.481C6.88899 25.3237 7.90421 24.3333 7.90421 23.3306V10.3881C7.90421 10.2035 8.04924 10.0621 8.23053 10.0621H9.64458C9.81983 10.0621 9.9709 10.2035 9.9709 10.3881V23.3368C9.9709 25.5882 8.76231 26.88 6.6654 26.88C6.0188 26.88 5.51119 26.88 4.09714 26.1664L1.17234 24.4502C0.44718 24.0258 0 23.2322 0 22.3772V9.26853C0 8.41964 0.44718 7.61996 1.17234 7.19551L12.3216 0.638113C13.0286 0.23212 13.9653 0.23212 14.6663 0.638113L25.8277 7.20166C26.5528 7.62611 27 8.41964 27 9.27468V22.3833C27 23.2322 26.5528 24.0258 25.8277 24.4564L14.6663 31.0137C14.3098 31.2229 13.9049 31.3336 13.494 31.3336ZM22.504 18.4095C22.504 15.9551 20.8724 15.3031 17.4461 14.8417C13.9774 14.3742 13.6269 14.1343 13.6269 13.31C13.6269 12.6272 13.923 11.7168 16.4913 11.7168C18.7816 11.7168 19.6276 12.2212 19.9781 13.796C20.0083 13.9436 20.1412 14.0543 20.2923 14.0543H21.7426C21.8333 14.0543 21.9179 14.0174 21.9783 13.9497C22.0387 13.8821 22.0689 13.7898 22.0629 13.6975C21.8393 10.9848 20.0687 9.72374 16.4913 9.72374C13.3066 9.72374 11.4091 11.0893 11.4091 13.3838C11.4091 15.869 13.3006 16.5579 16.3523 16.8655C20.0083 17.2284 20.2923 17.7759 20.2923 18.5079C20.2923 19.7751 19.2892 20.3165 16.9385 20.3165C13.9834 20.3165 13.3368 19.5598 13.1193 18.065C13.0951 17.9051 12.9622 17.7882 12.799 17.7882H11.3547C11.1735 17.7882 11.0345 17.9359 11.0345 18.1143C11.0345 20.0273 12.0557 22.3095 16.9445 22.3095C20.4736 22.3034 22.504 20.8824 22.504 18.4095Z" fill="black"/>
</svg>
