<svg width="32" height="29" viewBox="0 0 32 29" fill="none" xmlns="http://www.w3.org/2000/svg">
<path d="M16.001 17.0896C17.5768 17.0896 18.8543 15.8121 18.8543 14.2363C18.8543 12.6605 17.5768 11.383 16.001 11.383C14.4252 11.383 13.1477 12.6605 13.1477 14.2363C13.1477 15.8121 14.4252 17.0896 16.001 17.0896Z" fill="black"/>
<path d="M8.01159 19.9093L7.38019 19.7478C2.69024 18.5634 0 16.5493 0 14.2299C0 11.9089 2.69184 9.8964 7.38019 8.71192L8.01159 8.55207L8.18902 9.17708C8.66304 10.8134 9.27036 12.4082 10.0049 13.9453L10.1408 14.2299L10.0049 14.5144C9.26959 16.0537 8.66057 17.649 8.18902 19.2859L8.01159 19.9093ZM7.08927 10.1665C3.52625 11.1704 1.33793 12.7017 1.33793 14.2299C1.33793 15.7548 3.52465 17.2878 7.08927 18.29C7.52565 16.9025 8.05315 15.5454 8.66377 14.2299C8.04873 12.9121 7.52271 11.5546 7.08927 10.1665ZM23.9884 19.9093L23.8126 19.2827C23.3373 17.646 22.7295 16.0508 21.9951 14.5128L21.8592 14.2299L21.9951 13.9438C22.7304 12.4076 23.3362 10.8107 23.8126 9.17388L23.9884 8.55048L24.6198 8.71032C29.3114 9.8948 32 11.9073 32 14.2299C32 16.5509 29.3098 18.5634 24.6198 19.7478L23.9884 19.9093ZM23.333 14.2299C23.9724 15.6142 24.5047 16.9761 24.9107 18.29C28.4753 17.2878 30.6637 15.7548 30.6637 14.2299C30.6637 12.7017 28.4769 11.172 24.9107 10.1665C24.4748 11.5542 23.9477 12.9116 23.333 14.2299Z" fill="black"/>
<path d="M7.07975 10.1602L6.90391 9.53675C5.58357 4.88837 5.98319 1.55873 8.00207 0.398232C9.97619 -0.744682 13.1524 0.606035 16.4788 4.01879L16.9328 4.48555L16.4788 4.95071C15.2973 6.17944 14.2175 7.50199 13.2499 8.90535L13.0693 9.1643L12.756 9.18988C11.0545 9.32351 9.36678 9.59562 7.70955 10.0035L7.07975 10.1602ZM9.60854 1.32215C9.25048 1.32215 8.93398 1.40048 8.66704 1.55393C7.3435 2.31641 7.11012 4.97149 8.02125 8.55528C9.4455 8.24038 10.8825 8.015 12.3308 7.88872C13.1692 6.69953 14.0838 5.56596 15.069 4.49514C12.9861 2.46986 11.02 1.32215 9.60854 1.32215ZM22.3916 28.4708C20.4926 28.4708 18.0533 27.0385 15.5213 24.4394L15.069 23.9742L15.5213 23.5107C16.703 22.28 17.7833 20.9559 18.7519 19.5512L18.9309 19.2955L19.241 19.2651C20.943 19.1338 22.6314 18.8628 24.289 18.4547L24.9204 18.2948L25.0978 18.9198C26.4118 23.565 26.0138 26.8995 23.9981 28.0599C23.5087 28.3374 22.9541 28.4792 22.3916 28.4708ZM16.9328 23.963C19.014 25.9883 20.9817 27.1376 22.3916 27.1376C22.7513 27.1376 23.0678 27.0577 23.3331 26.9058C24.6582 26.1418 24.8932 23.4819 23.9789 19.8981C22.5562 20.2146 21.1176 20.4416 19.6662 20.5679C18.8313 21.7589 17.9182 22.8932 16.9328 23.963Z" fill="black"/>
<path d="M24.9203 10.1602L24.2889 10.0019C22.6314 9.59274 20.943 9.32062 19.2409 9.18828L18.9308 9.1611L18.7517 8.90215C17.7846 7.49802 16.7041 6.17539 15.5212 4.9475L15.0688 4.48235L15.5212 4.01879C18.846 0.607629 22.0206 -0.743088 23.9979 0.398227C26.0152 1.56032 26.4165 4.88996 25.0977 9.53675L24.9203 10.1602ZM19.6661 7.88871C21.191 8.02458 22.636 8.25316 23.9788 8.55528C24.8915 4.97148 24.6581 2.3164 23.333 1.55233C22.0158 0.789855 19.5366 1.95675 16.9327 4.49513C17.9173 5.56612 18.8317 6.69784 19.6661 7.88871ZM9.60842 28.4708C9.04596 28.4788 8.4915 28.337 8.00195 28.0599C5.98306 26.8994 5.58345 23.5666 6.90219 18.9198L7.07483 18.2948L7.70623 18.4547C9.24716 18.8431 10.9448 19.1164 12.7542 19.2651L13.0643 19.2955L13.245 19.5512C14.2104 20.9547 15.291 22.2798 16.4739 23.5107L16.9279 23.9742L16.4739 24.4394C13.9435 27.0401 11.5042 28.4708 9.60842 28.4708ZM8.02113 19.8997C7.10999 23.4835 7.34337 26.1434 8.66692 26.9074C9.98566 27.6587 12.4569 26.4998 15.0688 23.963C14.0841 22.8919 13.1695 21.7583 12.3306 20.5695C10.881 20.4413 9.44133 20.2175 8.02113 19.8997Z" fill="black"/>
<path d="M16.0006 20.7389C14.9024 20.7389 13.7755 20.6925 12.6438 20.5982L12.3305 20.5711L12.1499 20.3121C11.5117 19.3944 10.9112 18.4511 10.35 17.4844C9.79288 16.5151 9.27509 15.5238 8.79785 14.5128L8.66357 14.2299L8.79785 13.9438C9.27579 12.9335 9.7921 11.9425 10.35 10.9738C10.9046 10.0211 11.5105 9.06839 12.1499 8.14446L12.3305 7.88871L12.6438 7.85993C14.8767 7.67291 17.1213 7.67291 19.3542 7.85993L19.6643 7.8903L19.845 8.14606C21.1234 9.98232 22.2462 11.9222 23.2018 13.9454L23.3344 14.2315L23.2018 14.5144C22.2489 16.539 21.1259 18.479 19.845 20.3137L19.6643 20.5727L19.3542 20.5998C18.2257 20.6909 17.0972 20.7389 16.0006 20.7389ZM13.069 19.2939C15.0431 19.4425 16.9581 19.4425 18.9306 19.2939C20.0318 17.6813 21.0107 15.9886 21.859 14.2299C21.0137 12.4696 20.0347 10.7766 18.9306 9.16589C16.9796 9.01563 15.02 9.01563 13.069 9.16589C11.964 10.776 10.985 12.4691 10.1406 14.2299C10.9908 15.9876 11.9696 17.6802 13.069 19.2939Z" fill="black"/>
</svg>
