<svg width="32" height="32" viewBox="0 0 32 32" fill="none" xmlns="http://www.w3.org/2000/svg">
<path d="M6.85714 2.28571V6.85714H2.28571V2.28571H6.85714ZM0 0V9.14286H9.14286V0H0Z" fill="#FFCE07"/>
<path d="M18.2856 5.7143V10.2857H13.7142V5.7143H18.2856ZM11.4285 3.42859V12.5714H20.5713V3.42859H11.4285Z" fill="#FFCE07"/>
<path d="M6.85714 16V20.5714H2.28571V16H6.85714ZM0 13.7143V22.8572H9.14286V13.7143H0Z" fill="#FFCE07"/>
<path d="M22.8571 9.14288V16H16V22.8572H9.14282V32H32V9.14288H22.8571ZM18.2857 18.2857H22.8571V22.8572H18.2857V18.2857ZM16 29.7143H11.4285V25.1429H16V29.7143ZM22.8571 29.7143H18.2857V25.1429H22.8571V29.7143ZM29.7143 29.7143H25.1428V25.1429H29.7143V29.7143ZM29.7143 22.8572H25.1428V18.2857H29.7143V22.8572ZM25.1428 16V11.4286H29.7143V16H25.1428Z" fill="#FFCE07"/>
</svg>
