<svg width="23" height="31" viewBox="0 0 23 31" fill="none" xmlns="http://www.w3.org/2000/svg">
<path d="M11.1933 8.19197C11.2213 8.1345 11.265 8.08605 11.3192 8.05216C11.3734 8.01827 11.4361 8.00031 11.5 8.00031C11.5639 8.00031 11.6266 8.01827 11.6808 8.05216C11.735 8.08605 11.7786 8.1345 11.8067 8.19197L13.0218 10.6549C13.0462 10.7047 13.0823 10.7479 13.127 10.7806C13.1718 10.8133 13.2238 10.8346 13.2787 10.8427L16.0003 11.2376C16.2782 11.2778 16.3913 11.6209 16.1882 11.8183L14.2217 13.7369C14.182 13.7756 14.1523 13.8234 14.1353 13.8762C14.1183 13.929 14.1144 13.9851 14.1239 14.0397L14.5877 16.7499C14.5982 16.8125 14.5909 16.8767 14.5668 16.9354C14.5428 16.9941 14.5028 17.0449 14.4514 17.0821C14.4001 17.1194 14.3393 17.1416 14.2761 17.1462C14.2128 17.1508 14.1495 17.1377 14.0932 17.1083L11.6591 15.828C11.6103 15.8024 11.556 15.7891 11.501 15.7891C11.4459 15.7891 11.3916 15.8024 11.3428 15.828L8.90866 17.1083C8.85249 17.1372 8.78941 17.1498 8.72646 17.145C8.6635 17.1401 8.60313 17.1178 8.55207 17.0807C8.501 17.0435 8.46126 16.9929 8.43725 16.9345C8.41324 16.8761 8.40591 16.8122 8.41608 16.7499L8.87991 14.0397C8.8897 13.9853 8.88608 13.9292 8.86939 13.8765C8.85269 13.8237 8.82342 13.7758 8.78408 13.7369L6.80991 11.8183C6.76469 11.7739 6.73273 11.7178 6.71761 11.6562C6.7025 11.5947 6.70482 11.5302 6.72432 11.4699C6.74382 11.4096 6.77973 11.3559 6.82803 11.3149C6.87632 11.2738 6.93509 11.2471 6.99775 11.2376L9.71941 10.8427C9.77426 10.8346 9.82632 10.8133 9.87107 10.7806C9.91582 10.7479 9.95192 10.7047 9.97625 10.6549L11.1933 8.19197Z" fill="#FFCE07"/>
<path d="M0 4.16695C0 3.15029 0.403868 2.17527 1.12276 1.45638C1.84165 0.737486 2.81667 0.333618 3.83333 0.333618L19.1667 0.333618C20.1833 0.333618 21.1584 0.737486 21.8772 1.45638C22.5961 2.17527 23 3.15029 23 4.16695V30.042C22.9999 30.2153 22.9528 30.3854 22.8637 30.5341C22.7746 30.6828 22.6468 30.8045 22.494 30.8863C22.3412 30.9681 22.169 31.007 21.9959 30.9987C21.8227 30.9904 21.6551 30.9353 21.5107 30.8393L11.5 25.4439L1.48925 30.8393C1.34494 30.9353 1.17727 30.9904 1.00413 30.9987C0.830976 31.007 0.658822 30.9681 0.505999 30.8863C0.353176 30.8045 0.225408 30.6828 0.136302 30.5341C0.0471961 30.3854 8.95475e-05 30.2153 0 30.042V4.16695ZM3.83333 2.25028C3.325 2.25028 2.83749 2.45222 2.47805 2.81166C2.1186 3.17111 1.91667 3.65862 1.91667 4.16695V28.2518L10.9691 23.4946C11.1264 23.39 11.3111 23.3341 11.5 23.3341C11.6889 23.3341 11.8736 23.39 12.0309 23.4946L21.0833 28.2518V4.16695C21.0833 3.65862 20.8814 3.17111 20.522 2.81166C20.1625 2.45222 19.675 2.25028 19.1667 2.25028H3.83333Z" fill="#FFCE07"/>
</svg>
