<svg width="32" height="32" viewBox="0 0 32 32" fill="none" xmlns="http://www.w3.org/2000/svg">
<path d="M28.6256 9.0992C29.7824 11.2151 30.3872 13.5885 30.384 16C30.3846 18.5172 29.7244 20.9904 28.4693 23.1724C27.2142 25.3544 25.4082 27.1686 23.232 28.4336L27.6256 15.7312C28.4464 13.68 28.72 12.0368 28.72 10.5808C28.7206 10.0854 28.689 9.59051 28.6256 9.0992ZM17.984 9.2384C18.5327 9.21141 19.0803 9.16445 19.6256 9.0976C20.4016 8.9968 20.3104 7.8576 19.536 7.8992C19.536 7.8992 17.1952 8.0784 15.696 8.0784C14.2768 8.0784 11.896 7.8784 11.896 7.8784C11.1168 7.84 11.016 9.0192 11.7984 9.0592C11.7984 9.0592 12.5168 9.1424 13.2992 9.1792L15.5376 15.32L12.3776 24.7584L7.1392 9.2C7.68868 9.17237 8.2372 9.12809 8.784 9.0672C9.5632 8.9664 9.472 7.8272 8.696 7.872C8.696 7.872 6.368 8.056 4.864 8.056C4.5968 8.056 4.28 8.0448 3.944 8.0352C6.5488 4.2 10.9792 1.6192 16 1.6192C19.7456 1.6192 23.1536 3.0496 25.7136 5.3952C25.6528 5.392 25.592 5.3824 25.5264 5.3824C24.1136 5.3824 23.1104 6.6144 23.1104 7.936C23.1104 9.1216 23.7936 10.1264 24.5232 11.3088C25.072 12.2704 25.7104 13.5008 25.7104 15.2784C25.7104 16.4992 25.2384 17.9376 24.6144 19.9168L23.1808 24.696L17.9808 9.216L17.984 9.2384ZM16 30.3776C14.6244 30.3789 13.2558 30.1828 11.936 29.7952L16.2512 17.2544L20.672 29.3696C20.7056 29.44 20.7392 29.5056 20.776 29.568C19.2412 30.1062 17.6264 30.381 16 30.3808V30.3776ZM1.616 16C1.61367 13.9831 2.03788 11.9886 2.8608 10.1472L9.72 28.9456C7.29034 27.7659 5.24177 25.9261 3.80863 23.6368C2.37549 21.3474 1.61564 18.7009 1.616 16ZM16 0C7.1792 0 0 7.1792 0 16C0 24.8208 7.1792 32 16 32C24.8208 32 32 24.8208 32 16C32 7.1792 24.8208 0 16 0Z" fill="black"/>
</svg>
