<svg width="32" height="29" viewBox="0 0 32 29" fill="none" xmlns="http://www.w3.org/2000/svg">
<path d="M19.1222 26.3526C19.1222 26.801 19.1222 27.2261 19.1222 27.6769C19.1844 27.6769 19.2422 27.6769 19.2998 27.6769C20.104 27.6769 20.9081 27.6865 21.712 27.6721C22.0319 27.6663 22.3961 27.897 22.4145 28.3276C22.4305 28.6984 22.116 28.9996 21.7138 28.9993C18.6938 28.9993 15.6735 28.9966 12.6535 28.9957C11.7541 28.9954 10.8549 29.0006 9.9555 29C9.56625 28.9996 9.30453 28.7925 9.24091 28.4449C9.16975 28.0553 9.47458 27.679 9.86957 27.6778C10.6939 27.6751 11.518 27.6769 12.3423 27.6766C12.3966 27.6766 12.4506 27.6766 12.516 27.6766C12.516 27.2331 12.516 26.804 12.516 26.3523C12.4524 26.3523 12.3942 26.3523 12.336 26.3523C10.0945 26.3526 7.85302 26.3526 5.61154 26.3526C4.60719 26.3526 3.60253 26.3535 2.59818 26.352C1.34899 26.3505 0.247244 25.4119 0.051258 24.1763C0.0199002 23.9791 0.00723642 23.7771 0.00633187 23.5772C0.000904552 22.3409 0 21.105 0 19.8688C0.000603035 16.6184 0.00211062 13.3678 0.00452276 10.1174C0.0051258 9.33408 0.0126637 8.55073 0.0123622 7.76739C0.0114577 6.09427 0.00874401 4.42085 0.00331669 2.74773C0.00150759 2.14288 0.148045 1.58538 0.510771 1.09541C0.970283 0.475795 1.58387 0.113974 2.35214 0.026232C2.54119 0.00452276 2.73295 0.00150759 2.92351 0.00150759C8.54229 0.000301518 14.1611 0 19.7798 0C22.8303 0 25.8805 0 28.9309 0.000904552C30.3251 0.00150759 31.4175 0.947368 31.6165 2.32681C31.6343 2.45043 31.6349 2.57737 31.6352 2.7028C31.6364 4.91383 31.6361 7.12516 31.6361 9.33619C31.6364 12.6369 31.6367 15.9373 31.6367 19.238C31.6367 20.4935 31.637 21.7491 31.6349 23.0046C31.6343 23.3625 31.4525 23.6179 31.1498 23.699C30.7261 23.8126 30.3239 23.5172 30.3194 23.0775C30.3134 22.4796 30.3179 21.8814 30.3176 21.2835C30.3176 21.2289 30.3176 21.1747 30.3176 21.1014C20.6506 21.1014 10.9969 21.1014 1.33271 21.1014C1.32909 21.1545 1.32336 21.1985 1.32336 21.2422C1.32276 22.0512 1.31884 22.8605 1.32426 23.6694C1.32849 24.3029 1.65593 24.7669 2.24842 24.9717C2.38711 25.0196 2.5433 25.0359 2.69134 25.0362C6.7365 25.0398 10.7817 25.0395 14.8271 25.0395C18.616 25.0398 22.4052 25.0395 26.194 25.0404C26.6508 25.0404 27.1082 25.0377 27.5644 25.0546C27.9018 25.067 28.1599 25.3724 28.1518 25.7146C28.1433 26.0635 27.8659 26.3475 27.5195 26.3505C27.0322 26.3547 26.5453 26.352 26.058 26.352C23.8015 26.352 21.5452 26.352 19.2887 26.352C19.2389 26.3526 19.1892 26.3526 19.1222 26.3526ZM15.8125 19.7741C18.0434 19.7741 20.2746 19.7741 22.5056 19.7741C25.0486 19.7741 27.5916 19.7732 30.1346 19.7774C30.2763 19.7777 30.3209 19.7449 30.3209 19.5968C30.3173 13.9684 30.3179 8.33997 30.3164 2.71155C30.3164 2.59184 30.307 2.46943 30.2805 2.35304C30.1421 1.7482 29.6063 1.32577 28.981 1.32547C27.5189 1.32426 26.0568 1.32517 24.5948 1.32517C20.8361 1.32517 17.0776 1.32517 13.3189 1.32487C9.77128 1.32487 6.22332 1.32396 2.67567 1.32607C2.55657 1.32607 2.43415 1.34085 2.31897 1.3707C1.69815 1.53171 1.32336 2.05122 1.32336 2.7414C1.32306 8.34962 1.32336 13.9581 1.32336 19.5664C1.32336 19.7741 1.32336 19.7744 1.53593 19.7744C4.66176 19.7744 7.78729 19.7744 10.9131 19.7744C12.5461 19.7744 14.1795 19.7744 15.8125 19.7741ZM13.8514 27.6694C15.1727 27.6694 16.48 27.6694 17.7844 27.6694C17.7844 27.2249 17.7844 26.7928 17.7844 26.3575C16.4647 26.3575 15.1618 26.3575 13.8514 26.3575C13.8514 26.7974 13.8514 27.2273 13.8514 27.6694Z" fill="#FFCE07"/>
<path d="M15.824 22.4015C16.0347 22.4015 16.2452 22.4006 16.456 22.4018C16.8404 22.4036 17.147 22.7009 17.1443 23.0685C17.1419 23.4342 16.844 23.724 16.4644 23.7258C16.0332 23.7279 15.6018 23.7279 15.1703 23.7258C14.7967 23.724 14.4961 23.4261 14.4961 23.0621C14.4961 22.6991 14.7988 22.4048 15.1769 22.4021C15.3928 22.4003 15.6084 22.4015 15.824 22.4015Z" fill="#FFCE07"/>
<path d="M30.7205 25.3896C30.7193 25.761 30.4316 26.0484 30.0617 26.0478C29.7008 26.0472 29.3968 25.7348 29.3989 25.367C29.4007 25.0305 29.7113 24.7244 30.0508 24.7244C30.4256 24.7244 30.7217 25.0181 30.7205 25.3896Z" fill="#FFCE07"/>
<path d="M15.8052 18.452C12.0915 18.452 8.37736 18.4514 4.66357 18.4532C4.38135 18.4532 4.16215 18.3498 4.03642 18.0947C3.91279 17.8438 3.93903 17.5963 4.1121 17.3737C4.25622 17.1886 4.46005 17.1295 4.68528 17.1304C5.53888 17.1334 6.39247 17.141 7.24607 17.1404C9.1601 17.1392 11.0744 17.1325 12.9885 17.1304C14.7563 17.1286 16.5244 17.1301 18.2922 17.1301C20.2864 17.1301 22.2803 17.1301 24.2746 17.1301C25.1785 17.1301 26.0825 17.128 26.9867 17.131C27.5267 17.1328 27.8457 17.6575 27.591 18.1224C27.4791 18.3262 27.2997 18.4351 27.0669 18.4499C26.9819 18.4553 26.896 18.4514 26.8106 18.4514C23.1424 18.452 19.4738 18.452 15.8052 18.452Z" fill="#FFCE07"/>
<path d="M15.837 2.64854C19.2233 2.64854 22.6094 2.64854 25.9957 2.64854C26.337 2.64854 26.6784 2.64734 27.0197 2.64885C27.3842 2.65066 27.6613 2.91086 27.6722 3.25912C27.6845 3.64928 27.4412 3.93482 27.0595 3.95442C26.7742 3.96889 26.4875 3.96105 26.2017 3.96105C22.8907 3.96135 19.5794 3.96105 16.2685 3.96105C12.7021 3.96105 9.13576 3.96105 5.56972 3.96135C5.26368 3.96135 4.95764 3.96678 4.6516 3.96165C4.15741 3.95351 3.84654 3.52867 4.00062 3.07851C4.08776 2.82373 4.32234 2.65035 4.59401 2.64885C5.04598 2.64613 5.49796 2.64824 5.94993 2.64824C8.824 2.64824 11.6978 2.64824 14.5718 2.64824C14.9933 2.64854 15.4152 2.64854 15.837 2.64854Z" fill="#FFCE07"/>
<path d="M8.58805 9.85903C8.58805 10.4657 8.60644 11.0732 8.58382 11.679C8.54704 12.6643 7.82882 13.5246 6.87543 13.7649C5.57739 14.092 4.29021 13.3105 4.01523 12.0251C3.98809 11.8985 3.97061 11.767 3.97 11.6377C3.96669 10.3918 3.96669 9.14594 3.9685 7.90037C3.9688 7.57533 4.19795 7.30638 4.49977 7.26386C4.84501 7.21532 5.15768 7.39442 5.24452 7.70619C5.27618 7.81986 5.27829 7.94439 5.27859 8.06409C5.281 9.20443 5.27889 10.3448 5.2807 11.4851C5.2813 11.9675 5.55508 12.3517 5.98233 12.4798C6.63662 12.6761 7.27132 12.2021 7.27222 11.5128C7.27373 10.3324 7.27132 9.15197 7.27252 7.97122C7.27313 7.5093 7.58309 7.22075 8.02813 7.26206C8.30643 7.28799 8.56543 7.52799 8.58171 7.81021C8.60131 8.15063 8.59588 8.49285 8.598 8.83417C8.60011 9.17579 8.5986 9.51741 8.5986 9.85903C8.59498 9.85903 8.59166 9.85903 8.58805 9.85903Z" fill="#FFCE07"/>
<path d="M25.1717 9.83216C25.1717 10.45 25.1874 11.0684 25.1681 11.6859C25.1376 12.6664 24.3636 13.5553 23.4066 13.779C22.1725 14.0676 20.9302 13.3379 20.6151 12.1053C20.5648 11.9084 20.5452 11.6992 20.5437 11.4953C20.5361 10.516 20.5395 9.53667 20.5401 8.55734C20.5404 8.31673 20.5346 8.07522 20.5518 7.83521C20.5753 7.50324 20.8521 7.26052 21.1892 7.25599C21.5299 7.25147 21.8134 7.47912 21.8444 7.8135C21.8685 8.0725 21.8592 8.33512 21.8595 8.59624C21.8607 9.56049 21.8571 10.5244 21.8604 11.4887C21.8631 12.197 22.4761 12.6676 23.1458 12.4819C23.5706 12.364 23.8562 11.9738 23.8571 11.4971C23.8592 10.3568 23.8577 9.21616 23.858 8.07552C23.858 8.01521 23.8568 7.95491 23.8604 7.89461C23.8785 7.57741 24.0868 7.32233 24.3717 7.26655C24.6914 7.20413 24.995 7.35368 25.124 7.6549C25.1638 7.74807 25.1735 7.85963 25.1741 7.96305C25.1786 8.58599 25.1762 9.20892 25.1762 9.83216C25.1747 9.83216 25.1732 9.83216 25.1717 9.83216Z" fill="#FFCE07"/>
<path d="M11.7613 12.0266C11.5231 12.5015 11.2891 12.9655 11.0578 13.4308C10.8649 13.8188 10.4626 13.953 10.1011 13.7474C9.81076 13.5821 9.69618 13.198 9.84634 12.898C10.2232 12.1454 10.6004 11.3931 10.9719 10.6381C10.9969 10.5875 10.9963 10.5027 10.9713 10.4521C10.6059 9.71156 10.2344 8.97405 9.86443 8.23563C9.68623 7.87984 9.799 7.50928 10.1427 7.32203C10.4485 7.1556 10.8398 7.27078 11.0204 7.60576C11.2535 8.03754 11.4652 8.48077 11.6862 8.91887C11.7085 8.96289 11.7311 9.00691 11.7652 9.07385C11.8677 8.87334 11.9609 8.69243 12.0528 8.51092C12.2 8.22025 12.3453 7.92899 12.4934 7.63893C12.6685 7.2952 13.0448 7.15499 13.3693 7.30997C13.7088 7.47219 13.8472 7.86537 13.6774 8.21724C13.4899 8.60529 13.2915 8.98822 13.0976 9.37326C12.9173 9.73116 12.74 10.0906 12.5531 10.4452C12.5081 10.5302 12.5262 10.5908 12.5642 10.6659C12.9372 11.4031 13.3159 12.1376 13.6759 12.8808C13.915 13.3744 13.5502 13.8936 13.0153 13.8375C12.7605 13.8107 12.5883 13.6623 12.4759 13.4332C12.2618 12.9969 12.0414 12.5636 11.8231 12.1294C11.8074 12.0978 11.7872 12.0691 11.7613 12.0266Z" fill="#FFCE07"/>
<path d="M19.7334 5.9272C19.7087 6.03273 19.6954 6.13283 19.6619 6.226C19.1457 7.66816 18.628 9.11001 18.1085 10.5513C17.7928 11.4269 17.472 12.3007 17.1566 13.176C16.8955 13.9008 16.6395 14.6275 16.379 15.3523C16.2114 15.8191 15.7268 15.9668 15.3315 15.6741C15.1172 15.5152 15.0285 15.1961 15.1244 14.929C15.64 13.4926 16.1553 12.0558 16.6715 10.6191C17.2534 8.99875 17.8363 7.3787 18.4185 5.75835C18.5222 5.46949 18.7508 5.28406 19.0288 5.27652C19.317 5.26868 19.5317 5.39773 19.6571 5.65734C19.6972 5.74056 19.709 5.83734 19.7334 5.9272Z" fill="#FFCE07"/>
<path d="M27.6731 10.5531C27.6734 11.4372 27.6749 12.3215 27.6725 13.2056C27.6716 13.5303 27.428 13.8014 27.1168 13.8369C26.7782 13.8758 26.4703 13.6811 26.3889 13.3666C26.3654 13.2758 26.3624 13.1778 26.3624 13.0828C26.3609 11.3898 26.3627 9.69681 26.3606 8.00379C26.3603 7.75473 26.4164 7.53734 26.6292 7.38236C26.8397 7.22919 27.0686 7.2114 27.298 7.31542C27.5362 7.42336 27.6716 7.61784 27.6725 7.88529C27.6746 8.77477 27.6728 9.66394 27.6731 10.5531Z" fill="#FFCE07"/>
</svg>
