<svg width="32" height="18" viewBox="0 0 32 18" fill="none" xmlns="http://www.w3.org/2000/svg">
<path d="M23.3639 13.4563C23.1002 13.4563 22.8424 13.3784 22.6231 13.2324C22.4039 13.0864 22.233 12.8788 22.132 12.636C22.0311 12.3932 22.0047 12.1261 22.0562 11.8683C22.1076 11.6106 22.2346 11.3738 22.4211 11.188C22.6075 11.0022 22.8451 10.8756 23.1038 10.8244C23.3624 10.7731 23.6305 10.7994 23.8741 10.9C24.1178 11.0005 24.326 11.1708 24.4725 11.3894C24.619 11.6079 24.6972 11.8648 24.6972 12.1276C24.6972 12.48 24.5567 12.8179 24.3067 13.0671C24.0567 13.3163 23.7175 13.4563 23.3639 13.4563ZM8.63611 13.4563C8.3724 13.4563 8.11462 13.3784 7.89535 13.2324C7.67609 13.0864 7.50519 12.8788 7.40427 12.636C7.30335 12.3932 7.27695 12.1261 7.3284 11.8683C7.37984 11.6106 7.50683 11.3738 7.6933 11.188C7.87977 11.0022 8.11735 10.8756 8.37599 10.8244C8.63463 10.7731 8.90272 10.7994 9.14636 10.9C9.38999 11.0005 9.59823 11.1708 9.74474 11.3894C9.89125 11.6079 9.96944 11.8648 9.96944 12.1276C9.96944 12.48 9.82897 12.8179 9.57892 13.0671C9.32887 13.3163 8.98973 13.4563 8.63611 13.4563ZM23.8417 5.45732L26.505 0.862122C26.5474 0.799189 26.5763 0.728258 26.5901 0.653719C26.6038 0.579181 26.6021 0.502623 26.5849 0.428788C26.5678 0.354953 26.5356 0.285413 26.4904 0.224476C26.4452 0.163538 26.3879 0.112501 26.3221 0.0745242C26.2563 0.0365476 26.1833 0.012441 26.1078 0.00369715C26.0322 -0.00504666 25.9557 0.00175857 25.8829 0.0236915C25.8101 0.0456245 25.7426 0.0822179 25.6846 0.131205C25.6265 0.180193 25.5792 0.240531 25.5456 0.308483L22.8489 4.96292C20.6948 4.00016 18.3608 3.50243 16 3.50243C13.6392 3.50243 11.3052 4.00016 9.15111 4.96292L6.45444 0.308483C6.42077 0.240531 6.37345 0.180193 6.31543 0.131205C6.2574 0.0822179 6.1899 0.0456245 6.1171 0.0236915C6.04431 0.00175857 5.96777 -0.00504666 5.89223 0.00369715C5.81669 0.012441 5.74375 0.0365476 5.67794 0.0745242C5.61212 0.112501 5.55484 0.163538 5.50962 0.224476C5.46441 0.285413 5.43223 0.354953 5.41508 0.428788C5.39793 0.502623 5.39617 0.579181 5.40992 0.653719C5.42367 0.728258 5.45263 0.799189 5.495 0.862122L8.15833 5.45732C3.585 7.93596 0.457778 12.5494 0 18H32C31.5422 12.5494 28.4144 7.93596 23.8417 5.45732Z" fill="#272727"/>
</svg>
