<svg width="32" height="32" viewBox="0 0 32 32" fill="none" xmlns="http://www.w3.org/2000/svg">
<path fill-rule="evenodd" clip-rule="evenodd" d="M4.75 31H27.25C29.3211 31 31 29.3211 31 27.25V4.75C31 2.67893 29.3211 1 27.25 1H4.75C2.67893 1 1 2.67893 1 4.75V27.25C1 29.3211 2.67893 31 4.75 31Z" stroke="#FFCE07" stroke-width="1.5"/>
<path fill-rule="evenodd" clip-rule="evenodd" d="M10.6472 23.7434C11.0768 24.5059 11.4688 25.1514 12.4085 25.1514C13.3075 25.1514 13.8756 24.7992 13.8756 23.4308V14.124H16.6123V23.4685C16.6123 26.3021 14.9497 27.5921 12.5246 27.5921C10.3336 27.5921 9.06394 26.4579 8.41846 25.0924L10.6472 23.7434ZM20.3159 23.5063C20.9033 24.4643 21.6659 25.1679 23.0159 25.1679C24.1501 25.1679 24.8749 24.6017 24.8749 23.8179C24.8749 22.8792 24.1307 22.5472 22.8823 22.0014L22.1981 21.7072C20.223 20.8663 18.9107 19.8124 18.9107 17.5837C18.9107 15.5311 20.4746 13.9682 22.9191 13.9682C24.6591 13.9682 25.9094 14.573 26.8114 16.1592L24.6804 17.5285C24.212 16.6866 23.7049 16.3547 22.9191 16.3547C22.1178 16.3547 21.6088 16.8637 21.6088 17.5285C21.6088 18.3492 22.1178 18.6821 23.2917 19.1901L23.9759 19.4834C26.3023 20.4801 27.6146 21.4972 27.6146 23.783C27.6146 26.2469 25.6791 27.5969 23.0797 27.5969C20.5375 27.5969 18.8943 26.3863 18.091 24.7982L20.3159 23.5063Z" stroke="#FFCE07" stroke-width="1.5"/>
</svg>
