<svg width="33" height="32" viewBox="0 0 33 32" fill="none" xmlns="http://www.w3.org/2000/svg">
<path d="M22.8624 6.70331C24.4373 6.70331 25.7141 5.42658 25.7141 3.85166C25.7141 2.27673 24.4373 1 22.8624 1C21.2875 1 20.0107 2.27673 20.0107 3.85166C20.0107 5.42658 21.2875 6.70331 22.8624 6.70331Z" stroke="#FFCE07" stroke-width="1.5" stroke-linecap="round" stroke-linejoin="round"/>
<path d="M3.85166 25.7144C5.42658 25.7144 6.70331 24.4376 6.70331 22.8627C6.70331 21.2878 5.42658 20.011 3.85166 20.011C2.27673 20.011 1 21.2878 1 22.8627C1 24.4376 2.27673 25.7144 3.85166 25.7144Z" stroke="#FFCE07" stroke-width="1.5" stroke-linecap="round" stroke-linejoin="round"/>
<path d="M12.012 14.7018L5.86768 20.8462" stroke="#FFCE07" stroke-width="1.5" stroke-linecap="round" stroke-linejoin="round"/>
<path d="M20.8468 5.86804L14.7012 12.0137" stroke="#FFCE07" stroke-width="1.5" stroke-linecap="round" stroke-linejoin="round"/>
<path d="M13.3567 15.2583C14.4066 15.2583 15.2578 14.4071 15.2578 13.3572C15.2578 12.3072 14.4066 11.4561 13.3567 11.4561C12.3067 11.4561 11.4556 12.3072 11.4556 13.3572C11.4556 14.4071 12.3067 15.2583 13.3567 15.2583Z" stroke="#FFCE07" stroke-width="1.5" stroke-linecap="round" stroke-linejoin="round"/>
<path d="M13.9395 27.278V26.2527C13.9402 18.9447 19.8643 13.0205 27.1724 13.0198H28.1977" stroke="#FFCE07" stroke-width="1.5" stroke-linecap="round" stroke-linejoin="round"/>
<path d="M15.8408 27.2781H12.0386V31.0803H15.8408V27.2781Z" stroke="#FFCE07" stroke-width="1.5" stroke-linecap="round" stroke-linejoin="round"/>
<path d="M32 11.1188H28.1978V14.921H32V11.1188Z" stroke="#FFCE07" stroke-width="1.5" stroke-linecap="round" stroke-linejoin="round"/>
</svg>
