<svg width="32" height="32" viewBox="0 0 32 32" fill="none" xmlns="http://www.w3.org/2000/svg">
<path d="M28 27H29C30.1046 27 31 26.1046 31 25V3.15333C30.9963 1.9656 30.0344 1.00366 28.8467 1H3.14267C1.96082 1.00366 1.00366 1.96082 1 3.14267V24.8453C1.00293 26.0336 1.96508 26.9963 3.15333 27H4" stroke="#FFCE07" stroke-width="1.5" stroke-linecap="round" stroke-linejoin="round"/>
<path d="M1 7H31" stroke="#FFCE07" stroke-width="1.5" stroke-linecap="round" stroke-linejoin="round"/>
<path d="M16 31C20.4183 31 24 27.4183 24 23C24 18.5817 20.4183 15 16 15C11.5817 15 8 18.5817 8 23C8 27.4183 11.5817 31 16 31Z" stroke="#FFCE07" stroke-width="1.5" stroke-linecap="round" stroke-linejoin="round"/>
<path d="M16 23L18.7747 20" stroke="#FFCE07" stroke-width="1.5" stroke-linecap="round" stroke-linejoin="round"/>
<path d="M16 15V11" stroke="#FFCE07" stroke-width="1.5" stroke-linecap="round" stroke-linejoin="round"/>
<path d="M14 11H18" stroke="#FFCE07" stroke-width="1.5" stroke-linecap="round" stroke-linejoin="round"/>
<path d="M21.1333 16.7773L22.9106 15" stroke="#FFCE07" stroke-width="1.5" stroke-linecap="round" stroke-linejoin="round"/>
<path d="M10.4668 16.7773L8.68945 15" stroke="#FFCE07" stroke-width="1.5" stroke-linecap="round" stroke-linejoin="round"/>
</svg>
