<svg width="31" height="16" viewBox="0 0 31 16" fill="none" xmlns="http://www.w3.org/2000/svg">
<path d="M0.157036 15.7507H2.94254V4.63344H0.158282V15.7507H0.157036ZM1.55291 0C0.630634 0 0 0.661921 0 1.52887C0 2.37304 0.605708 3.03496 1.52798 3.03496C2.49387 3.03496 3.10207 2.37304 3.10207 1.52887C3.07715 0.661921 2.49138 0 1.54917 0H1.55291ZM12.4332 0.113906C8.1621 0.113906 5.24199 3.44629 5.24199 8.17212C5.24199 12.6904 7.93776 16 12.2089 16C16.3903 16 19.4699 13.0562 19.4699 7.89748C19.4699 3.51463 16.8626 0.113906 12.4345 0.113906H12.4332ZM12.3647 13.7421C9.71251 13.7421 8.16085 11.2539 8.16085 8.12656C8.16085 4.95365 9.62153 2.37431 12.3647 2.37431C15.129 2.37431 16.5448 5.11311 16.5448 8.01266C16.5448 11.2324 15.0405 13.7421 12.3647 13.7421ZM27.1148 6.80272C25.0933 6.00538 24.2159 5.4561 24.2159 4.26895C24.2159 3.37921 24.9786 2.42114 26.7334 2.42114C28.1505 2.42114 29.2011 2.85398 29.7445 3.15013L30.4175 0.892264C29.6174 0.480937 28.4197 0.116437 26.7633 0.116437C23.4818 0.116437 21.4129 2.03386 21.4129 4.54612C21.4129 6.76096 23.0082 8.10505 25.5045 9.01883C27.4388 9.72758 28.1991 10.411 28.1991 11.5754C28.1991 12.8309 27.2058 13.6763 25.4235 13.6763C24.0065 13.6763 22.6567 13.2207 21.7619 12.6942L21.1586 15.0229C21.9912 15.5254 23.6538 15.9848 25.2465 15.9848C29.16 15.9848 30.9995 13.8459 30.9995 11.3716C31.0282 9.15678 29.747 7.81016 27.1148 6.80525V6.80272Z" fill="#272727"/>
</svg>
