<svg width="32" height="29" viewBox="0 0 32 29" fill="none" xmlns="http://www.w3.org/2000/svg">
<path d="M16.0007 17.0896C17.5766 17.0896 18.854 15.8122 18.854 14.2363C18.854 12.6605 17.5766 11.3831 16.0007 11.3831C14.4249 11.3831 13.1475 12.6605 13.1475 14.2363C13.1475 15.8122 14.4249 17.0896 16.0007 17.0896Z" fill="#272727"/>
<path d="M8.01159 19.9093L7.38019 19.7479C2.69024 18.5634 0 16.5493 0 14.2299C0 11.9089 2.69184 9.89646 7.38019 8.71198L8.01159 8.55214L8.18902 9.17714C8.66304 10.8135 9.27036 12.4083 10.0049 13.9454L10.1408 14.2299L10.0049 14.5145C9.26959 16.0538 8.66057 17.6491 8.18902 19.2859L8.01159 19.9093ZM7.08927 10.1666C3.52625 11.1704 1.33793 12.7018 1.33793 14.2299C1.33793 15.7549 3.52465 17.2878 7.08927 18.2901C7.52565 16.9026 8.05315 15.5455 8.66377 14.2299C8.04873 12.9122 7.52271 11.5547 7.08927 10.1666ZM23.9884 19.9093L23.8126 19.2827C23.3373 17.6461 22.7295 16.0508 21.9951 14.5129L21.8592 14.2299L21.9951 13.9438C22.7304 12.4077 23.3362 10.8108 23.8126 9.17394L23.9884 8.55054L24.6198 8.71039C29.3114 9.89486 32 11.9073 32 14.2299C32 16.5509 29.3098 18.5634 24.6198 19.7479L23.9884 19.9093ZM23.333 14.2299C23.9724 15.6142 24.5047 16.9761 24.9107 18.2901C28.4753 17.2878 30.6637 15.7549 30.6637 14.2299C30.6637 12.7018 28.4769 11.172 24.9107 10.1666C24.4748 11.5543 23.9477 12.9117 23.333 14.2299Z" fill="#272727"/>
<path d="M7.0795 10.1602L6.90367 9.53675C5.58332 4.88837 5.98294 1.55873 8.00182 0.398232C9.97595 -0.744682 13.1521 0.606035 16.4786 4.01879L16.9325 4.48555L16.4786 4.95071C15.2971 6.17944 14.2172 7.50199 13.2496 8.90535L13.069 9.1643L12.7557 9.18988C11.0543 9.32351 9.36653 9.59562 7.7093 10.0035L7.0795 10.1602ZM9.6083 1.32215C9.25024 1.32215 8.93374 1.40048 8.66679 1.55393C7.34325 2.31641 7.10987 4.97149 8.02101 8.55528C9.44525 8.24038 10.8823 8.015 12.3305 7.88872C13.1689 6.69953 14.0836 5.56596 15.0687 4.49514C12.9859 2.46986 11.0198 1.32215 9.6083 1.32215ZM22.3914 28.4708C20.4924 28.4708 18.0531 27.0385 15.5211 24.4394L15.0687 23.9742L15.5211 23.5107C16.7027 22.28 17.7831 20.9559 18.7516 19.5512L18.9306 19.2955L19.2407 19.2651C20.9428 19.1338 22.6312 18.8628 24.2887 18.4547L24.9202 18.2948L25.0976 18.9198C26.4115 23.565 26.0135 26.8995 23.9978 28.0599C23.5084 28.3374 22.9539 28.4792 22.3914 28.4708ZM16.9325 23.963C19.0138 25.9883 20.9815 27.1376 22.3914 27.1376C22.751 27.1376 23.0675 27.0577 23.3329 26.9058C24.658 26.1418 24.893 23.4819 23.9786 19.8981C22.556 20.2146 21.1174 20.4416 19.6659 20.5679C18.8311 21.7589 17.9179 22.8932 16.9325 23.963Z" fill="#272727"/>
<path d="M24.9205 10.1602L24.2891 10.0019C22.6316 9.59274 20.9432 9.32062 19.2411 9.18828L18.931 9.1611L18.752 8.90215C17.7848 7.49802 16.7044 6.17539 15.5214 4.9475L15.0691 4.48235L15.5214 4.01879C18.8463 0.607629 22.0209 -0.743088 23.9982 0.398227C26.0155 1.56032 26.4167 4.88996 25.0979 9.53675L24.9205 10.1602ZM19.6663 7.88871C21.1913 8.02458 22.6363 8.25316 23.979 8.55528C24.8917 4.97148 24.6584 2.3164 23.3332 1.55233C22.0161 0.789855 19.5368 1.95675 16.9329 4.49513C17.9176 5.56612 18.8319 6.69784 19.6663 7.88871ZM9.60867 28.4708C9.04621 28.4788 8.49174 28.337 8.00219 28.0599C5.98331 26.8994 5.58369 23.5666 6.90244 18.9198L7.07507 18.2948L7.70647 18.4547C9.24741 18.8431 10.945 19.1164 12.7545 19.2651L13.0646 19.2955L13.2452 19.5512C14.2107 20.9547 15.2913 22.2798 16.4741 23.5107L16.9281 23.9742L16.4741 24.4394C13.9437 27.0401 11.5045 28.4708 9.60867 28.4708ZM8.02137 19.8997C7.11024 23.4835 7.34362 26.1434 8.66716 26.9074C9.98591 27.6587 12.4572 26.4998 15.0691 23.963C14.0843 22.8919 13.1697 21.7583 12.3309 20.5695C10.8812 20.4413 9.44158 20.2175 8.02137 19.8997Z" fill="#272727"/>
<path d="M16.0006 20.739C14.9024 20.739 13.7755 20.6926 12.6438 20.5983L12.3305 20.5711L12.1499 20.3122C11.5117 19.3945 10.9112 18.4511 10.35 17.4845C9.79288 16.5152 9.27509 15.5238 8.79785 14.5129L8.66357 14.2299L8.79785 13.9438C9.27579 12.9336 9.7921 11.9425 10.35 10.9738C10.9046 10.0211 11.5105 9.06845 12.1499 8.14452L12.3305 7.88877L12.6438 7.85999C14.8767 7.67297 17.1213 7.67297 19.3542 7.85999L19.6643 7.89037L19.845 8.14612C21.1234 9.98238 22.2462 11.9222 23.2018 13.9454L23.3344 14.2315L23.2018 14.5145C22.2489 16.539 21.1259 18.4791 19.845 20.3138L19.6643 20.5727L19.3542 20.5999C18.2257 20.691 17.0972 20.739 16.0006 20.739ZM13.069 19.2939C15.0431 19.4426 16.9581 19.4426 18.9306 19.2939C20.0318 17.6814 21.0107 15.9887 21.859 14.2299C21.0137 12.4696 20.0347 10.7767 18.9306 9.16595C16.9796 9.01569 15.02 9.01569 13.069 9.16595C11.964 10.7761 10.985 12.4691 10.1406 14.2299C10.9908 15.9877 11.9696 17.6803 13.069 19.2939Z" fill="#272727"/>
</svg>
