<svg width="32" height="32" viewBox="0 0 32 32" fill="none" xmlns="http://www.w3.org/2000/svg">
<path d="M22.1466 31L17.0946 26.8747C16.4281 26.3418 16.1333 25.4693 16.34 24.6413C16.5002 23.9986 16.9436 23.4633 17.5454 23.1864C18.1472 22.9095 18.8422 22.9209 19.4346 23.2173L21 24V17C21 15.8954 21.8954 15 23 15C24.1045 15 25 15.8954 25 17V21L27.6573 21.4427C29.5861 21.764 30.9998 23.4327 31 25.388V31" stroke="#FFCE07" stroke-width="1.5" stroke-linecap="round" stroke-linejoin="round"/>
<path d="M5 23H3C1.89543 23 1 22.1046 1 21V3C1 1.89543 1.89543 1 3 1H13C14.1046 1 15 1.89543 15 3V5" stroke="#FFCE07" stroke-width="1.5" stroke-linecap="round" stroke-linejoin="round"/>
<path d="M1 19H5" stroke="#FFCE07" stroke-width="1.5" stroke-linecap="round" stroke-linejoin="round"/>
<path d="M1 5H15" stroke="#FFCE07" stroke-width="1.5" stroke-linecap="round" stroke-linejoin="round"/>
<path d="M11 23C9.89543 23 9 22.1046 9 21V11C9 9.89543 9.89543 9 11 9H29C30.1046 9 31 9.89543 31 11V17" stroke="#FFCE07" stroke-width="1.5" stroke-linecap="round" stroke-linejoin="round"/>
<path d="M13 9V21" stroke="#FFCE07" stroke-width="1.5" stroke-linecap="round" stroke-linejoin="round"/>
<path d="M27 9V13" stroke="#FFCE07" stroke-width="1.5" stroke-linecap="round" stroke-linejoin="round"/>
</svg>
